<?xml version="1.0" standalone="no"?>
<!DOCTYPE svg PUBLIC "-//W3C//DTD SVG 1.1//EN" "http://www.w3.org/Graphics/SVG/1.1/DTD/svg11.dtd" >
<svg xmlns="http://www.w3.org/2000/svg">
<metadata>Generated by IcoMoon</metadata>
<defs>
<font id="m-icon-font" horiz-adv-x="1024">
<font-face units-per-em="1024" ascent="960" descent="-64" />
<missing-glyph horiz-adv-x="1024" />
<glyph unicode="&#x20;" horiz-adv-x="512" d="" />
<glyph unicode="&#xe900;" glyph-name="m_001_down_thick" d="M509.867 200.818l-400.64 400.782 40.107 40.107 360.533-360.391 363.52 363.662 40.249-40.249-403.769-403.911z" />
<glyph unicode="&#xe901;" glyph-name="m_001_down_thin" d="M480 215.324l-395.662 395.662 30.151 30.151 365.511-365.511 368.64 368.64 30.151-30.151-398.791-398.791z" />
<glyph unicode="&#xe902;" glyph-name="m_002_up_thick" d="M875.804 221.013l-363.662 363.52-360.391-360.391-40.249 40.249 400.64 400.64 403.911-403.769-40.249-40.249z" />
<glyph unicode="&#xe903;" glyph-name="m_002_up_thin" d="M850.916 230.4l-368.64 368.64-365.511-365.511-30.151 30.293 395.662 395.52 398.791-398.791-30.151-30.151z" />
<glyph unicode="&#xe904;" glyph-name="m_003_new_thick" d="M899.84 478.72h-357.12v351.858h-56.889v-351.858h-357.262v-56.889h357.262v-358.827h56.889v358.827h357.12v56.889z" />
<glyph unicode="&#xe905;" glyph-name="m_003_new_thin" d="M463.076 836.836h42.667v-767.573h-42.667v767.573zM98.844 477.867h771.271v-42.667h-771.271v42.667z" />
<glyph unicode="&#xe906;" glyph-name="m_004_close_thick" d="M859.733 753.067l-40.249 40.249-306.347-306.347-305.351 305.493-40.249-40.249 305.493-305.351-307.769-307.769 40.249-40.249 307.627 307.769 310.044-309.902 40.107 40.107-309.902 310.044 306.347 306.204z" />
<glyph unicode="&#xe907;" glyph-name="m_004_close_thin" d="M83.1 823.049l30.17 30.17 770.338-770.338-30.17-30.17-770.338 770.338zM83.1 82.881l770.338 770.338 30.17-30.17-770.338-770.338-30.17 30.17z" />
<glyph unicode="&#xe908;" glyph-name="m_005_check_thick" d="M387.982 146.489l-281.316 281.458 40.107 40.107 241.209-241.067 527.36 527.502 40.249-40.249-567.609-567.751z" />
<glyph unicode="&#xe909;" glyph-name="m_005_check_thin" d="M358.116 162.844l-276.338 276.196 30.151 30.293 246.187-246.187 532.48 532.48 30.151-30.151-562.631-562.631z" />
<glyph unicode="&#xe90a;" glyph-name="m_006_search_thick" d="M917.333 84.338l-257.422 268.373c42.426 49.591 68.246 114.49 68.246 185.419 0 157.958-128.051 286.009-286.009 286.009s-286.009-128.051-286.009-286.009c0-157.958 128.051-286.009 286.009-286.009 67.015 0 128.646 23.048 177.4 61.65l256.825-268.829zM215.609 536.604c0 125.675 101.88 227.556 227.556 227.556s227.556-101.88 227.556-227.556c0-125.675-101.88-227.556-227.556-227.556s-227.556 101.88-227.556 227.556z" />
<glyph unicode="&#xe90b;" glyph-name="m_006_search_thin" d="M413.44 265.529c-153.167 0-277.333 124.166-277.333 277.333s124.166 277.333 277.333 277.333c153.167 0 277.333-124.166 277.333-277.333-0.162-153.102-124.232-277.172-277.318-277.333zM413.44 777.529c-129.603 0-234.667-105.064-234.667-234.667s105.064-234.667 234.667-234.667c129.603 0 234.667 105.064 234.667 234.667-0.162 129.538-105.129 234.505-234.651 234.667zM575.841 343.454l30.79 29.537 275.775-287.475-30.79-29.537-275.775 287.475z" />
<glyph unicode="&#xe90c;" glyph-name="m_007_prev_left_thick" d="M694.471 48.071l-403.769 403.769 400.64 400.64 40.249-40.107-360.391-360.533 363.52-363.52-40.249-40.249z" />
<glyph unicode="&#xe90d;" glyph-name="m_007_prev_left_thin" d="M669.724 57.458l-398.791 398.791 395.662 395.662 30.151-30.151-365.511-365.511 368.64-368.64-30.151-30.151z" />
<glyph unicode="&#xe90e;" glyph-name="m_008_next_right_thick" d="M352.284 48.071l-40.249 40.249 363.52 363.52-360.391 360.533 40.249 40.107 400.64-400.64-403.769-403.769z" />
<glyph unicode="&#xe90f;" glyph-name="m_008_next_right_thin" d="M317.298 57.458l-30.151 30.151 368.64 368.64-365.511 365.511 30.151 30.151 395.662-395.662-398.791-398.791z" />
<glyph unicode="&#xe910;" glyph-name="m_009_flow_goto_next_thick" d="M838.258 524.658l-296.533-296.391v541.582h-56.889v-541.582l-296.391 296.391-40.249-40.107 365.084-365.084 365.227 365.084-40.249 40.107z" />
<glyph unicode="&#xe911;" glyph-name="m_009_flow_goto_next_thin" d="M483.413 135.68l-359.964 359.964 30.151 30.293 329.813-329.956 329.956 329.956 30.151-30.293-360.107-359.964zM462.080 776.107h42.667v-606.72h-42.667v606.72z" />
<glyph unicode="&#xe912;" glyph-name="m_010_flow_goto_prev_thick" d="M878.364 412.729l-365.084 365.084-365.084-365.084 40.249-40.249 296.391 296.533v-541.582h56.889v541.582l296.533-296.533 40.107 40.249z" />
<glyph unicode="&#xe913;" glyph-name="m_010_flow_goto_prev_thin" d="M813.369 383.716l-329.956 329.956-329.956-329.956-30.151 30.151 360.107 360.107 360.107-360.107-30.151-30.151zM462.080 740.267h42.667v-606.72h-42.667v606.72z" />
<glyph unicode="&#xe914;" glyph-name="m_011_forward_right_thick" d="M485.12 815.502l-40.249-40.249 296.391-296.391h-541.582v-56.889h541.582l-296.391-296.391 40.249-40.249 365.084 365.084-365.084 365.084z" />
<glyph unicode="&#xe915;" glyph-name="m_011_forward_right_thin" d="M450.133 83.769l-30.151 30.151 329.956 329.813-329.956 329.956 30.151 30.151 360.107-360.107-360.107-359.964zM169.813 465.209h606.72v-42.667h-606.72v42.667z" />
<glyph unicode="&#xe916;" glyph-name="m_012_back_left_thick" d="M827.022 478.862h-541.582l296.391 296.391-40.249 40.249-365.084-365.084 365.084-365.084 40.249 40.249-296.391 296.391h541.582v56.889z" />
<glyph unicode="&#xe917;" glyph-name="m_012_back_left_thin" d="M516.836 94.72l-360.107 360.107 360.107 360.107 30.151-30.151-329.956-329.956 329.956-329.956-30.151-30.151zM190.436 476.16h606.72v-42.667h-606.72v42.667z" />
<glyph unicode="&#xe918;" glyph-name="m_013_flow_return_thick" d="M795.876 703.431h-56.889v-229.973h-509.44l209.778 209.92-40.107 40.249-278.613-278.613 278.613-278.613 40.107 40.249-209.778 209.92h566.329v286.862z" />
<glyph unicode="&#xe919;" glyph-name="m_013_flow_return_thin" d="M374.329 177.636l-273.493 273.636 273.493 273.493 30.151-30.151-243.342-243.342 243.342-243.342-30.151-30.293zM759.040 429.938h-628.053v42.667h585.387v237.084h42.667v-279.751z" />
<glyph unicode="&#xe91a;" glyph-name="m_013_minus_thick" d="M256.427 498.347h511.858v-103.111h-511.858v103.111z" />
<glyph unicode="&#xe91b;" glyph-name="m_014_reload_refresh_thick" d="M787.484 654.649c-5.275 5.844-12.877 9.501-21.333 9.501-15.851 0-28.701-12.85-28.701-28.701 0-7.395 2.797-14.137 7.39-19.225 50.148-54.534 80.902-127.634 80.902-207.918 0-0.045 0-0.090 0-0.135 0.010-0.94 0.016-2.058 0.016-3.177 0-172.804-140.085-312.889-312.889-312.889s-312.889 140.085-312.889 312.889c0 172.804 140.085 312.889 312.889 312.889 21.942 0 43.356-2.259 64.023-6.556l-85.23-82.847c-5.15-5.15-8.336-12.265-8.336-20.124 0-15.718 12.742-28.46 28.46-28.46 7.859 0 14.974 3.186 20.124 8.336l129.707 129.991c5.154 5.149 8.342 12.264 8.342 20.124s-3.188 14.976-8.342 20.124l-128 128c-4.93 4.212-11.379 6.776-18.427 6.776-15.709 0-28.444-12.735-28.444-28.444 0-7.119 2.615-13.627 6.937-18.616l75.348-75.342c-16.455 2.65-35.468 4.199-54.83 4.266-201.072-1.851-363.303-165.226-363.303-366.492 0-202.416 164.091-366.507 366.507-366.507 202.411 0 366.498 164.082 366.507 366.491-0.238 95.075-36.851 181.552-96.651 246.291z" />
<glyph unicode="&#xe91c;" glyph-name="m_014_reload_refresh_thin" d="M484.836 64c-0.076 0-0.167 0-0.258 0-198.489 0-359.396 160.907-359.396 359.396s160.907 359.396 359.396 359.396c34.574 0 68.007-4.882 99.648-13.994 6.526-1.975 13.046-10.189 13.046-19.926 0-11.787-9.556-21.343-21.343-21.343-2.051 0-4.034 0.289-5.911 0.829-24.629 6.938-53.087 10.947-82.48 10.947-174.689 0-316.302-141.613-316.302-316.302s141.613-316.302 316.302-316.302c174.677 0 316.283 141.594 316.302 316.267 0 0.182 0.001 0.395 0.001 0.609 0 82.128-31.457 156.91-82.979 212.953-2.292 3.223-3.788 7.537-3.788 12.201 0 11.782 9.551 21.333 21.333 21.333 5.412 0 10.353-2.015 14.114-5.336 58.046-63.531 93.619-148.494 93.619-241.765 0-198.253-160.716-358.969-358.969-358.969-0.821 0-1.641 0.003-2.461 0.008zM481.991 601.884c-11.774 0.011-21.315 9.558-21.315 21.333 0 5.886 2.384 11.216 6.239 15.076l114.631 114.631-112.213 112.64c-3.548 3.799-5.726 8.917-5.726 14.543 0 11.782 9.551 21.333 21.333 21.333 5.626 0 10.744-2.178 14.556-5.737l127.988-127.989c3.855-3.86 6.239-9.189 6.239-15.076s-2.384-11.216-6.239-15.076l-129.706-129.706c-3.833-3.709-9.063-5.995-14.827-5.995-0.337 0-0.673 0.008-1.007 0.023z" />
<glyph unicode="&#xe91d;" glyph-name="m_016_circle_horz_menu_fill" d="M286.862 449.707c0-43.515-35.276-78.791-78.791-78.791s-78.791 35.276-78.791 78.791c0 43.515 35.276 78.791 78.791 78.791s78.791-35.276 78.791-78.791zM593.92 449.707c0-43.515-35.276-78.791-78.791-78.791s-78.791 35.276-78.791 78.791c0 43.515 35.276 78.791 78.791 78.791s78.791-35.276 78.791-78.791zM895.716 449.707c0-43.515-35.276-78.791-78.791-78.791s-78.791 35.276-78.791 78.791c0 43.515 35.276 78.791 78.791 78.791s78.791-35.276 78.791-78.791z" />
<glyph unicode="&#xe91e;" glyph-name="m_017_circle_horz_menu_thin" d="M227.556 348.444c-54.119 0-97.991 43.872-97.991 97.991s43.872 97.991 97.991 97.991c54.119 0 97.991-43.872 97.991-97.991-0.081-54.086-43.905-97.91-97.983-97.991zM227.556 506.169c-32.911 0-59.591-26.68-59.591-59.591s26.68-59.591 59.591-59.591c32.911 0 59.591 26.68 59.591 59.591-0.081 32.879-26.712 59.51-59.583 59.591zM515.129 348.444c-54.119 0-97.991 43.872-97.991 97.991s43.872 97.991 97.991 97.991c54.119 0 97.991-43.872 97.991-97.991-0.081-54.086-43.905-97.91-97.983-97.991zM515.129 506.169c-32.911 0-59.591-26.68-59.591-59.591s26.68-59.591 59.591-59.591c32.911 0 59.591 26.68 59.591 59.591-0.081 32.879-26.712 59.51-59.583 59.591zM797.724 348.444c-53.997 0.162-97.707 43.972-97.707 97.991 0 54.119 43.872 97.991 97.991 97.991s97.991-43.872 97.991-97.991c-0.081-54.137-43.986-97.991-98.133-97.991-0.050 0-0.1 0-0.15 0zM797.724 506.169c-32.911 0-59.591-26.68-59.591-59.591s26.68-59.591 59.591-59.591c32.911 0 59.591 26.68 59.591 59.591-0.081 32.879-26.712 59.51-59.583 59.591z" />
<glyph unicode="&#xe91f;" glyph-name="m_018_circle_vert_menu_fill" d="M593.351 753.067c0-43.515-35.276-78.791-78.791-78.791s-78.791 35.276-78.791 78.791c0 43.515 35.276 78.791 78.791 78.791s78.791-35.276 78.791-78.791zM593.351 448.142c0-43.515-35.276-78.791-78.791-78.791s-78.791 35.276-78.791 78.791c0 43.515 35.276 78.791 78.791 78.791s78.791-35.276 78.791-78.791zM593.351 139.947c0-43.515-35.276-78.791-78.791-78.791s-78.791 35.276-78.791 78.791c0 43.515 35.276 78.791 78.791 78.791s78.791-35.276 78.791-78.791z" />
<glyph unicode="&#xe920;" glyph-name="m_019_circle_ver_menu_thin" d="M512 636.871c-54.119 0-97.991 43.872-97.991 97.991s43.872 97.991 97.991 97.991c54.119 0 97.991-43.872 97.991-97.991-0.081-54.086-43.905-97.91-97.983-97.991zM512 794.596c-32.911 0-59.591-26.68-59.591-59.591s26.68-59.591 59.591-59.591c32.911 0 59.591 26.68 59.591 59.591-0.081 32.879-26.712 59.51-59.583 59.591zM512 351.147c-54.119 0-97.991 43.872-97.991 97.991s43.872 97.991 97.991 97.991c54.119 0 97.991-43.872 97.991-97.991-0.081-54.086-43.905-97.91-97.983-97.991zM512 508.871c-32.911 0-59.591-26.68-59.591-59.591s26.68-59.591 59.591-59.591c32.911 0 59.591 26.68 59.591 59.591-0.161 32.818-26.762 59.369-59.583 59.449zM512 62.151c-54.119 0-97.991 43.872-97.991 97.991s43.872 97.991 97.991 97.991c54.119 0 97.991-43.872 97.991-97.991-0.081-54.086-43.905-97.91-97.983-97.991zM512 220.444c-32.911 0-59.591-26.68-59.591-59.591s26.68-59.591 59.591-59.591c32.911 0 59.591 26.68 59.591 59.591-0.081 32.879-26.712 59.51-59.583 59.591z" />
<glyph unicode="&#xe921;" glyph-name="m_020_favorite_outline_thin" d="M512 835.982l95.431-296.676h303.502l-244.764-177.92 95.716-294.4-250.596 181.902-249.884-182.613 95.858 294.969-247.182 178.347h306.204l95.716 296.391zM512 880.782c-0.013 0-0.028 0-0.044 0-19.812 0-36.62-12.86-42.532-30.688l-85.424-265.703h-273.92c-24.685-0.075-44.668-20.104-44.668-44.8 0-14.859 7.234-28.029 18.373-36.179l220.855-159.377-85.333-263.964c-1.391-4.135-2.193-8.897-2.193-13.846 0-24.742 20.058-44.8 44.8-44.8 9.914 0 19.075 3.22 26.496 8.671l223.591 163.184 223.573-162.56c7.296-5.364 16.458-8.584 26.371-8.584 24.742 0 44.8 20.058 44.8 44.8 0 4.949-0.803 9.711-2.285 14.162l-85.242 263.079 218.027 158.293c11.265 8.238 18.499 21.408 18.499 36.267 0 24.696-19.982 44.725-44.66 44.8l-271.083 0.569-85.333 265.671c-5.96 18.218-22.803 31.146-42.666 31.147v0z" />
<glyph unicode="&#xe922;" glyph-name="m_021_favorite_fill" d="M512 864.427c-12.549-0.010-23.195-8.144-26.964-19.426l-89.516-276.965h-285.44c-15.692-0.023-28.404-12.749-28.404-28.444 0-9.442 4.601-17.81 11.683-22.984l230.481-166.314-89.458-275.2c-0.866-2.601-1.366-5.597-1.366-8.708 0-15.709 12.735-28.444 28.444-28.444 6.287 0 12.097 2.039 16.805 5.493l233.734 170.042 233.102-169.529c4.641-3.425 10.473-5.481 16.786-5.481 15.709 0 28.444 12.735 28.444 28.444 0 3.181-0.522 6.239-1.485 9.095l-89.257 274.431 227.556 165.262c7.163 5.23 11.764 13.598 11.764 23.040 0 15.695-12.712 28.421-28.402 28.444h-282.882l-88.604 277.476c-3.779 11.542-14.439 19.738-27.019 19.769h-0.004z" />
<glyph unicode="&#xe923;" glyph-name="m_022_status_ok_thick" d="M514.133 37.547c-225.991 0-409.884 183.893-409.884 409.884s183.893 409.884 409.884 409.884 409.884-183.893 409.884-409.884-183.893-409.884-409.884-409.884zM514.133 800.427c-194.702 0-352.996-158.293-352.996-352.996s158.293-352.996 352.996-352.996 352.996 158.293 352.996 352.996-158.293 352.996-352.996 352.996zM482.987 332.089l-103.111 103.253 40.249 40.249 62.862-63.004 137.244 137.244 40.249-40.249z" />
<glyph unicode="&#xe924;" glyph-name="m_022_status_ok_thin" d="M518.4 39.538c-222.446 0-402.773 180.328-402.773 402.773s180.328 402.773 402.773 402.773c222.446 0 402.773-180.328 402.773-402.773-0.243-222.348-180.425-402.531-402.75-402.773zM518.4 802.418c-198.881 0-360.107-161.225-360.107-360.107s161.225-360.107 360.107-360.107c198.881 0 360.107 161.225 360.107 360.107-0.243 198.784-161.323 359.864-360.084 360.107zM487.253 337.067l-98.133 98.133 30.151 30.151 67.982-67.982 142.364 142.364 30.151-30.151-172.516-172.516z" />
<glyph unicode="&#xe925;" glyph-name="m_023_status_ok_fill" d="M514.133 856.32c-225.991 0-409.884-183.893-409.884-409.884s183.893-409.884 409.884-409.884 409.884 183.893 409.884 409.884-183.893 409.884-409.884 409.884zM482.987 331.093l-103.111 103.253 40.249 40.249 63.004-63.004 137.244 137.244 40.249-40.249-177.636-177.493z" />
<glyph unicode="&#xe926;" glyph-name="m_024_status_error_thick" d="M515.129 37.547c-225.991 0-409.884 183.893-409.884 409.884s183.893 409.884 409.884 409.884 409.884-183.893 409.884-409.884-183.893-409.884-409.884-409.884zM515.129 800.427c-194.702 0-352.996-158.293-352.996-352.996s158.293-352.996 352.996-352.996 352.996 158.293 352.996 352.996-158.293 352.996-352.996 352.996zM372.047 552.23l40.226 40.226 247.793-247.793-40.226-40.226-247.793 247.793zM372.047 344.663l247.793 247.793 40.226-40.226-247.793-247.793-40.226 40.226z" />
<glyph unicode="&#xe927;" glyph-name="m_024_status_error_thin" d="M519.396 39.538c-222.446 0-402.773 180.328-402.773 402.773s180.328 402.773 402.773 402.773c222.446 0 402.773-180.328 402.773-402.773-0.243-222.348-180.425-402.531-402.75-402.773zM519.396 802.418c-198.881 0-360.107-161.225-360.107-360.107s161.225-360.107 360.107-360.107c198.881 0 360.107 161.225 360.107 360.107-0.243 198.784-161.323 359.864-360.084 360.107zM381.398 551.931l30.17 30.17 247.795-247.795-30.17-30.17-247.795 247.795zM381.398 334.306l247.795 247.795 30.17-30.17-247.795-247.795-30.17 30.17z" />
<glyph unicode="&#xe928;" glyph-name="m_025_status_error_fill" d="M515.129 834.987c-214.187 0-388.551-174.364-388.551-388.551s174.364-388.551 388.551-388.551 388.551 174.364 388.551 388.551-174.222 388.551-388.551 388.551zM660.053 343.467l-40.249-40.249-103.822 103.822-103.822-103.822-40.249 40.249 103.822 103.822-103.822 103.822 40.249 40.249 103.822-103.822 103.822 103.822 40.249-40.249-103.822-103.822 103.822-103.822z" />
<glyph unicode="&#xe929;" glyph-name="m_026_status_warn_thick" d="M512.569 37.547c-225.991 0-409.884 183.893-409.884 409.884s183.893 409.884 409.884 409.884 409.884-183.893 409.884-409.884-183.893-409.884-409.884-409.884zM512.569 800.427c-194.702 0-352.996-158.293-352.996-352.996s158.293-352.996 352.996-352.996 352.996 158.293 352.996 352.996-158.293 352.996-352.996 352.996zM511.147 278.756l-171.378 171.378 171.378 171.378 171.378-171.378-171.378-171.378zM420.267 450.133l90.88-90.88 90.88 90.88-90.88 90.88-90.88-90.88z" />
<glyph unicode="&#xe92a;" glyph-name="m_026_status_warn_thin" d="M516.836 39.538c-222.446 0-402.773 180.328-402.773 402.773s180.328 402.773 402.773 402.773c222.446 0 402.773-180.328 402.773-402.773-0.243-222.348-180.425-402.531-402.75-402.773zM516.836 802.418c-198.881 0-360.107-161.225-360.107-360.107s161.225-360.107 360.107-360.107c198.881 0 360.107 161.225 360.107 360.107-0.243 198.784-161.323 359.864-360.084 360.107zM515.413 283.733l-161.28 161.28 161.28 161.28 161.28-161.28zM414.436 445.013l100.978-100.978 100.978 100.978-100.978 100.978z" />
<glyph unicode="&#xe92b;" glyph-name="m_027_status_warn_fill" d="M420.197 449.299l90.911 90.911 90.911-90.911-90.911-90.911-90.911 90.911zM512.569 856.32c-225.991 0-409.884-183.893-409.884-409.884s183.893-409.884 409.884-409.884 409.884 183.893 409.884 409.884-183.893 409.884-409.884 409.884zM511.147 277.76l-171.378 171.378 171.378 171.378 171.378-171.378-171.378-171.378z" />
<glyph unicode="&#xe92c;" glyph-name="m_028_message_error_thick" d="M807.111 67.84h-585.813c-50.631 0-96.853 26.453-120.747 69.12-22.613 40.391-21.76 88.036 2.276 127.716l292.836 500.622c25.173 41.102 69.262 65.28 118.471 65.28s93.44-24.32 118.187-64.853l293.262-501.333c23.893-39.253 24.889-87.040 2.276-127.431-23.893-42.667-70.258-69.12-120.747-69.12zM514.133 773.689c-29.298 0-55.324-14.080-69.689-37.689l-292.693-500.338c-0.142-0.142-0.142-0.284-0.284-0.427-13.511-22.187-14.080-47.929-1.422-70.4 14.080-25.031 40.676-40.107 71.111-40.107h585.813c30.436 0 57.031 14.933 71.111 40.107 12.658 22.613 12.089 48.213-1.422 70.4l-293.262 501.333c-13.938 23.040-39.964 37.12-69.262 37.12zM127.147 250.027v0 0zM483.982 640.853h56.889v-319.289h-56.889v319.289zM483.982 259.982h56.889v-69.12h-56.889v69.12z" />
<glyph unicode="&#xe92d;" glyph-name="m_030_message_error_red_fill" d="M922.738 264.391l-293.262 501.333c-24.889 40.676-68.978 64.853-118.187 64.853s-93.44-24.32-118.471-65.28l-292.836-500.622c-24.036-39.68-25.031-87.324-2.276-127.716 23.893-42.667 70.116-69.12 120.747-69.12h585.813c50.631 0 96.853 26.453 120.747 69.12 22.613 40.533 21.618 88.32-2.276 127.431zM541.44 192h-56.889v69.12h56.889v-69.12zM541.44 322.56h-56.889v319.289h56.889v-319.289z" />
<glyph unicode="&#xe92e;" glyph-name="m_031_status_disconnected_thick" d="M514.702 857.316c-225.991 0-409.884-183.893-409.884-409.884s183.893-409.884 409.884-409.884 409.884 183.893 409.884 409.884-183.893 409.884-409.884 409.884zM514.702 94.436c-184.747 0-336.782 142.791-351.716 323.84h220.729v-152.178h56.889v209.067h-277.76c14.222 181.76 166.542 325.262 351.858 325.262s337.636-143.502 351.858-325.262h-224.711v152.178h-56.889v-209.067h281.458c-14.933-181.049-166.969-323.84-351.716-323.84z" />
<glyph unicode="&#xe92f;" glyph-name="m_031_status_disconnected_thin" d="M518.969 39.538c-222.446 0-402.773 180.328-402.773 402.773s180.328 402.773 402.773 402.773c222.446 0 402.773-180.328 402.773-402.773-0.243-222.348-180.425-402.531-402.75-402.773zM518.969 802.418c-198.881 0-360.107-161.225-360.107-360.107s161.225-360.107 360.107-360.107c198.881 0 360.107 161.225 360.107 360.107-0.243 198.784-161.323 359.864-360.084 360.107zM437.76 260.978h-42.667v159.289h-253.44v42.667h296.107v-201.956zM899.84 420.267h-303.644v201.813h42.667v-159.147h260.978v-42.667z" />
<glyph unicode="&#xe930;" glyph-name="m_032_status_info_thick" d="M513.138 37.547c-226.373 0-409.884 183.512-409.884 409.884s183.512 409.884 409.884 409.884c226.173 0 409.56-183.187 409.884-409.285 0-0.073 0-0.123 0-0.173 0-226.459-183.459-410.068-409.861-410.311zM513.138 800.427c-194.954 0-352.995-158.042-352.995-352.996s158.041-352.996 352.996-352.996c194.954 0 352.996 158.041 352.996 352.996 0 0.2 0 0.4 0 0.6-0.566 194.581-158.339 352.154-352.973 352.395zM486.116 499.627h56.889v-287.289h-56.889v287.289zM555.093 610.987c0-23.8-19.294-43.093-43.093-43.093s-43.093 19.294-43.093 43.093c0 23.8 19.294 43.093 43.093 43.093s43.093-19.294 43.093-43.093z" />
<glyph unicode="&#xe931;" glyph-name="m_033_status_denied_thick" d="M513.564 857.316c-225.991 0-409.884-183.893-409.884-409.884s183.893-409.884 409.884-409.884 409.884 183.893 409.884 409.884-183.751 409.884-409.884 409.884zM513.564 94.436c-87.040 0-166.827 31.716-228.409 84.196l184.889 184.889-40.249 40.249-184.889-184.889c-52.48 61.582-84.338 141.511-84.338 228.551 0 194.702 158.293 352.996 352.996 352.996 87.182 0 166.969-31.858 228.551-84.338l-183.182-183.182 40.249-40.249 183.182 183.182c52.48-61.582 84.196-141.369 84.196-228.409 0-194.56-158.293-352.996-352.996-352.996z" />
<glyph unicode="&#xe932;" glyph-name="m_033_status_denied_thin" d="M517.831 39.538c-222.446 0-402.773 180.328-402.773 402.773s180.328 402.773 402.773 402.773c222.446 0 402.773-180.328 402.773-402.773-0.243-222.348-180.425-402.531-402.75-402.773zM517.831 802.418c-198.881 0-360.107-161.225-360.107-360.107s161.225-360.107 360.107-360.107c198.881 0 360.107 161.225 360.107 360.107-0.243 198.784-161.323 359.864-360.084 360.107zM568.282 522.692l202.44 202.44 30.17-30.17-202.44-202.44-30.17 30.17zM236.762 191.238l202.44 202.44 30.17-30.17-202.44-202.44-30.17 30.17z" />
<glyph unicode="&#xe933;" glyph-name="m_034_status_pending_thick" d="M515.698 37.547c-225.991 0-409.884 183.893-409.884 409.884s183.893 409.884 409.884 409.884 409.884-183.893 409.884-409.884-183.893-409.884-409.884-409.884zM515.698 800.427c-194.702 0-352.996-158.293-352.996-352.996s158.293-352.996 352.996-352.996 352.996 158.293 352.996 352.996-158.436 352.996-352.996 352.996zM771.129 403.911h-310.756v176.782h56.889v-119.893h253.867z" />
<glyph unicode="&#xe934;" glyph-name="m_034_status_pending_thin" d="M519.964 39.538c-222.446 0-402.773 180.328-402.773 402.773s180.328 402.773 402.773 402.773c222.446 0 402.773-180.328 402.773-402.773-0.243-222.348-180.425-402.531-402.75-402.773zM519.964 802.418c-198.881 0-360.107-161.225-360.107-360.107s161.225-360.107 360.107-360.107c198.881 0 360.107 161.225 360.107 360.107-0.243 198.784-161.323 359.864-360.084 360.107zM775.396 405.902h-303.644v169.671h42.667v-127.004h260.978v-42.667z" />
<glyph unicode="&#xe935;" glyph-name="m_035_status_retracted_thick" d="M513.138 37.547c-226.373 0-409.884 183.512-409.884 409.884s183.512 409.884 409.884 409.884c226.173 0 409.56-183.187 409.884-409.285 0-0.073 0-0.123 0-0.173 0-226.459-183.459-410.068-409.861-410.311zM513.138 800.427c-194.954 0-352.995-158.042-352.995-352.996s158.041-352.996 352.996-352.996c194.954 0 352.996 158.041 352.996 352.996 0 0.2 0 0.4 0 0.6-0.566 194.581-158.339 352.154-352.973 352.395zM691.627 445.156v-58.027h-348.16l131.413 156.444h72.533l-80.782-98.418h224.996z" />
<glyph unicode="&#xe936;" glyph-name="m_136_sys_mac" d="M660.622 53.902h-300.516v42.667h129.707v69.404h-361.813c-11.782 0-21.333 9.551-21.333 21.333v620.516c0 11.782 9.551 21.333 21.333 21.333h768c11.782 0 21.333-9.551 21.333-21.333v-620.516c0-11.782-9.551-21.333-21.333-21.333h-363.378v-69.404h128zM511.289 208.64h363.52v577.849h-725.333v-577.849zM743.253 311.324h-460.8v383.289h460.8zM307.484 336.356h410.738v333.227h-410.738zM562.916 259.556c-17.888 41.603-28.29 90.029-28.29 140.884 0 22.945 2.117 45.395 6.168 67.166l-84.26-2.254v12.516c0 134.684 109.938 262.116 114.489 267.52l18.916-16.498c-0.996-1.138-101.262-117.618-108.089-238.507h89.031l-3.271-15.218c-5.057-22.181-7.955-47.652-7.955-73.8 0-47.235 9.457-92.261 26.58-133.288zM514.133 380.729c-57.525 0.249-111.647 14.584-159.167 39.729l13.247 21.427c42.33-22.474 92.548-35.669 145.849-35.669s103.519 13.196 147.567 36.498l9.659-23.158c-45.608-24.226-99.678-38.559-157.071-38.826zM589.938 626.489h25.031v-50.062h-25.031v50.062zM400.356 626.489h25.031v-50.062h-25.031v50.062z" />
<glyph unicode="&#xe937;" glyph-name="m_035_status_retracted_thin" d="M517.404 39.538c-222.446 0-402.773 180.328-402.773 402.773s180.328 402.773 402.773 402.773c222.446 0 402.773-180.328 402.773-402.773-0.243-222.348-180.425-402.531-402.75-402.773zM517.404 802.418c-198.881 0-360.107-161.225-360.107-360.107s161.225-360.107 360.107-360.107c198.881 0 360.107 161.225 360.107 360.107-0.243 198.784-161.323 359.864-360.084 360.107zM509.013 442.453l88.036 88.036-2.133 2.133h-56.178l-132.693-132.836h316.871v42.667h-213.902z" />
<glyph unicode="&#xe938;" glyph-name="m_036_status_running_thick" d="M510.578 857.316c-225.991 0-409.884-183.893-409.884-409.884s183.893-409.884 409.884-409.884 409.884 183.893 409.884 409.884-183.893 409.884-409.884 409.884zM510.578 94.436c-184.747 0-336.782 142.791-351.716 323.84h249.173v56.889h-249.316c14.222 181.76 166.542 325.262 351.858 325.262 194.702 0 352.996-158.293 352.996-352.996s-158.436-352.996-352.996-352.996zM510.151 475.164h141.084v-56.889h-141.084v56.889z" />
<glyph unicode="&#xe939;" glyph-name="m_036_status_running_thin" d="M514.844 39.538c-222.446 0-402.773 180.328-402.773 402.773s180.328 402.773 402.773 402.773c222.446 0 402.773-180.328 402.773-402.773-0.243-222.348-180.425-402.531-402.75-402.773zM514.844 802.418c-198.881 0-360.107-161.225-360.107-360.107s161.225-360.107 360.107-360.107c198.881 0 360.107 161.225 360.107 360.107-0.243 198.784-161.323 359.864-360.084 360.107zM137.671 462.933h274.773v-42.667h-274.773v42.667zM514.418 462.933h141.084v-42.667h-141.084v42.667z" />
<glyph unicode="&#xe93a;" glyph-name="m_037_filter_thick" d="M415.605 9.697c-15.868 0-28.732 12.864-28.732 28.732v375.093l-316.049 387.017c-4.068 4.921-6.536 11.294-6.536 18.245 0 15.843 12.823 28.691 28.656 28.732h852.763c0.001 0 0.001 0 0.002 0 15.868 0 28.732-12.864 28.732-28.732 0-7.148-2.61-13.686-6.93-18.714l-332.107-386.835v-293.782c-0.010-11.812-7.146-21.954-17.34-26.362l-191.252-81.095c-3.305-1.446-7.155-2.291-11.202-2.299zM152.853 790.052l285.019-348.085c4.025-4.906 6.465-11.247 6.465-18.158 0-0.031 0-0.061 0-0.092v-341.903l133.603 56.602v285.45c0 0.001 0 0.001 0 0.002 0 7.147 2.609 13.684 6.928 18.712l298.347 347.472h-730.361z" />
<glyph unicode="&#xe93b;" glyph-name="m_038_filter-clear_thick" d="M712.533 480.711l92.444 92.444c11.378 11.378 11.378 28.444 0 39.822s-28.444 11.378-39.822 0l-92.444-92.444-92.444 92.444c-11.378 11.378-28.444 11.378-39.822 0s-11.378-28.444 0-39.822l92.444-92.444-92.444-92.444c-11.378-11.378-11.378-28.444 0-39.822s28.444-11.378 39.822 0v0l92.444 92.444 92.444-92.444c11.378-11.378 28.444-11.378 39.822 0s11.378 28.444 0 39.822l-92.444 92.444zM957.156 822.044c-4.267 9.956-14.222 17.067-25.6 17.067h-844.8c-15.644 0-28.444-12.8-28.444-28.444 0-7.111 2.844-12.8 7.111-18.489l312.889-382.578v-371.2c0-15.644 12.8-28.444 28.444-28.444 4.267 0 7.111 1.422 11.378 2.844l189.156 79.644c9.956 4.267 17.067 14.222 17.067 25.6v102.4c140.8-25.6 277.333 68.267 301.511 210.489 15.644 86.756-14.222 176.356-78.222 236.089l105.244 125.156c7.111 7.111 8.533 19.911 4.267 29.867zM567.467 136.533l-132.267-56.889v284.444c27.022-56.889 73.956-102.4 132.267-126.578v-100.978zM901.689 476.444c0-128-105.244-231.822-233.244-231.822s-231.822 105.244-231.822 233.244c0 128 103.822 231.822 231.822 231.822 129.422-1.422 233.244-105.244 233.244-233.244 0 0 0 0 0 0zM802.133 699.733c-123.733 73.956-283.022 32.711-356.978-91.022-24.178-39.822-36.978-86.756-36.978-133.689 0-5.689 0-11.378 1.422-17.067l-263.111 322.844h722.489l-66.844-81.067z" />
<glyph unicode="&#xe93c;" glyph-name="m_039_comment_sys_thin" d="M399.218-0.284c-11.782 0-21.333 9.551-21.333 21.333 0 43.947 0 104.96 0 136.391h-204.089c-0.047 0-0.103 0-0.159 0-40.452 0-73.244 32.793-73.244 73.244 0 0.55 0.006 1.099 0.018 1.646l-0.001 545.198c-0.011 0.466-0.017 1.014-0.017 1.565 0 40.452 32.793 73.244 73.244 73.244 0.056 0 0.112 0 0.168 0h671.28c40.975-0.242 74.098-33.514 74.098-74.523 0-0.1 0-0.201-0.001-0.301v-545.265c0-0.085 0.001-0.185 0.001-0.286 0-41.009-33.123-74.281-74.075-74.523h-228.716l-203.947-153.458c-3.522-2.666-7.976-4.271-12.806-4.271-0.148 0-0.296 0.002-0.443 0.005zM173.796 809.529c-17.010-0.149-30.741-13.973-30.741-31.003 0-0.401 0.008-0.799 0.023-1.196l-0.002-545.081c-0.013-0.34-0.021-0.738-0.021-1.139 0-17.031 13.731-30.854 30.727-31.003h224.441c21.333 0 21.476-14.222 21.476-45.938v-90.169l175.929 132.124c3.521 2.664 7.973 4.267 12.8 4.267h236.658c0.002 0 0.005 0 0.008 0 17.359 0 31.431 14.072 31.431 31.431 0 0.25-0.003 0.499-0.009 0.748l0.001 544.959c0.005 0.212 0.008 0.461 0.008 0.711 0 17.359-14.072 31.431-31.431 31.431-0.003 0-0.006 0-0.009 0h-671.288zM509.013 425.956c-39.544 0.162-71.538 32.255-71.538 71.822 0 39.666 32.156 71.822 71.822 71.822s71.822-32.156 71.822-71.822c-0.162-39.701-32.383-71.822-72.106-71.822 0 0 0 0-0.001 0zM509.013 547.84c-27.386-0.242-49.493-22.498-49.493-49.918 0-27.57 22.35-49.92 49.92-49.92 27.519 0 49.838 22.268 49.92 49.768-0.241 27.551-22.625 49.786-50.203 49.786-0.051 0-0.101 0-0.152 0zM646.969 472.889c-8.847-1.775-15.915-7.994-18.86-16.18-1.999-5.642-3.918-10.102-6.076-14.421-1.275-2.467-2.216-6.242-2.216-10.236 0-5.193 1.59-10.014 4.311-14.004l23.838-34.474-24.32-24.178-34.844 23.751c-3.939 2.651-8.791 4.231-14.011 4.231-4.009 0-7.8-0.932-11.168-2.59-3.636-1.788-8.339-3.712-13.172-5.356-9.288-3.203-15.552-10.221-17.37-18.876l-6.855-41.835h-34.276l-8.391 41.813c-1.847 8.818-8.111 15.837-16.321 18.719-5.92 1.915-10.626 3.794-15.187 5.933-2.432 1.26-6.223 2.192-10.231 2.192-5.221 0-10.072-1.58-14.102-4.288l-34.611-23.551-23.324 24.178 24.178 34.418c2.652 3.911 4.234 8.735 4.234 13.929 0 3.989-0.933 7.759-2.592 11.106-1.763 3.442-3.683 7.902-5.345 12.485-3.28 9.242-10.348 15.461-19.033 17.209l-45.388 7.707v34.133l45.227 7.68c8.847 1.775 15.915 7.994 18.86 16.18 1.988 5.629 3.908 10.089 6.071 14.406 1.281 2.482 2.222 6.257 2.222 10.251 0 5.193-1.59 10.014-4.311 14.004l-24.122 35.043 24.32 24.178 35.271-24.178c3.939-2.651 8.791-4.231 14.011-4.231 4.009 0 7.8 0.932 11.168 2.59 3.636 1.788 8.339 3.712 13.172 5.356 8.612 3.595 14.244 10.45 15.81 18.741l7.705 44.388h34.987l7.68-44.231c1.847-8.818 8.111-15.837 16.321-18.719 5.903-1.902 10.61-3.781 15.167-5.926 2.451-1.267 6.242-2.199 10.251-2.199 5.221 0 10.072 1.58 14.102 4.288l35.323 24.263 24.32-24.178-24.462-35.271c-2.652-3.911-4.234-8.735-4.234-13.929 0-3.989 0.933-7.759 2.592-11.106 1.764-3.443 3.683-7.903 5.345-12.486 3.28-9.241 10.347-15.46 19.033-17.208l41.832-7.707v-34.133zM692.338 539.733l-38.969 7.822c-2.327 6.616-4.631 12.016-7.226 17.246l22.302 32.105c2.711 3.956 4.329 8.847 4.329 14.115 0 6.994-2.852 13.321-7.456 17.883l-24.464 24.322c-4.622 4.57-10.979 7.393-17.996 7.393-5.27 0-10.168-1.592-14.239-4.322l-33.045-21.986c-4.371 2.194-9.82 4.499-15.417 6.491l-8.903 39.162c-2.349 11.829-12.645 20.622-24.994 20.622-0.013 0-0.026 0-0.039 0h-34.558c-0.028 0-0.061 0-0.093 0-12.247 0-22.475-8.649-24.908-20.172l-7.852-38.993c-6.678-2.327-12.127-4.633-17.406-7.23l-32.23 22.448c-3.979 2.671-8.877 4.264-14.146 4.264-7.017 0-13.374-2.823-17.998-7.395l-24.46-24.318c-4.606-4.564-7.458-10.891-7.458-17.885 0-5.268 1.618-10.159 4.385-14.201l21.989-32.909c-2.214-4.43-4.521-9.928-6.502-15.578l-39.435-8.884c-11.734-2.401-20.441-12.623-20.48-24.885v-34.422c0-0.012 0-0.026 0-0.039 0-12.271 8.73-22.502 20.318-24.822l39.273-7.565c2.326-6.615 4.631-12.015 7.226-17.245l-22.444-32.106c-2.711-3.956-4.329-8.847-4.329-14.115 0-6.994 2.852-13.321 7.456-17.883l24.464-24.322c4.622-4.57 10.979-7.393 17.996-7.393 5.27 0 10.168 1.592 14.239 4.322l33.045 21.986c4.393-2.211 9.842-4.517 15.443-6.501l8.877-39.152c2.463-11.689 12.69-20.338 24.938-20.338 0.033 0 0.066 0 0.099 0h34.555c0.028 0 0.061 0 0.093 0 12.247 0 22.475 8.649 24.908 20.172l7.852 38.993c6.678 2.327 12.127 4.633 17.406 7.23l32.23-22.448c3.979-2.671 8.877-4.264 14.146-4.264 7.017 0 13.374 2.823 17.998 7.395l24.46 24.318c4.572 4.558 7.401 10.863 7.401 17.828 0 5.232-1.596 10.092-4.328 14.118l-22.13 32.907c2.304 4.415 4.701 9.858 6.774 15.457l39.449 8.863c11.75 2.347 20.48 12.579 20.48 24.849 0 0.014 0 0.028 0 0.042v34.273c-0.039 12.266-8.746 22.488-20.316 24.861z" />
<glyph unicode="&#xe93d;" glyph-name="m_040_comment_user_thin" d="M399.218-0.284c-11.782 0-21.333 9.551-21.333 21.333 0 43.947 0 104.96 0 136.391h-204.089c-0.047 0-0.103 0-0.159 0-40.452 0-73.244 32.793-73.244 73.244 0 0.55 0.006 1.099 0.018 1.646l-0.001 545.198c-0.011 0.466-0.017 1.014-0.017 1.565 0 40.452 32.793 73.244 73.244 73.244 0.056 0 0.112 0 0.168 0h671.28c40.975-0.242 74.098-33.514 74.098-74.523 0-0.1 0-0.201-0.001-0.301v-545.265c0-0.085 0.001-0.185 0.001-0.286 0-41.009-33.123-74.281-74.075-74.523h-228.716l-203.947-153.458c-3.522-2.666-7.976-4.271-12.806-4.271-0.148 0-0.296 0.002-0.443 0.005zM173.796 809.529c-17.010-0.149-30.741-13.973-30.741-31.003 0-0.401 0.008-0.799 0.023-1.196l-0.002-545.081c-0.013-0.34-0.021-0.738-0.021-1.139 0-17.031 13.731-30.854 30.727-31.003h224.441c21.333 0 21.476-14.222 21.476-45.938v-90.169l175.929 132.124c3.521 2.664 7.973 4.267 12.8 4.267h236.658c0.002 0 0.005 0 0.008 0 17.359 0 31.431 14.072 31.431 31.431 0 0.25-0.003 0.499-0.009 0.748l0.001 544.959c0.005 0.212 0.008 0.461 0.008 0.711 0 17.359-14.072 31.431-31.431 31.431-0.003 0-0.006 0-0.009 0h-671.288zM581.12 463.929c16.213-12.089 63.004-23.182 101.547-44.373 8.278-4.511 13.879-13.013 14.221-22.852 0.997-6.162 2.988-78.979 2.988-78.979h-375.751s1.991 72.96 2.844 78.933c0.113 9.988 5.864 18.606 14.216 22.83 37.695 21.259 92.308 31.072 108.095 42.735 7.953 13.688 12.69 30.101 12.8 47.612-0.711 9.277-13.511 10.272-14.222 27.623-2.947 4.447-6.33 8.282-10.169 11.602-5.63 7.426-9.211 16.566-9.876 26.504-0.008 11.387 2.267 8.542 2.267 22.622-0.025 1.114-0.040 2.426-0.040 3.742 0 18.199 2.77 35.75 7.911 52.257 3.642 12.375 11.876 23.699 22.805 31.485 14.408 8.801 8.435-2.719 54.515 7.521 29.867 6.684 76.658-24.32 77.084-49.067-0.006-0.529-0.009-1.155-0.009-1.781 0-14.963 1.818-29.501 5.245-43.406 1.835-4.202 3.344-10.519 3.984-17.090-0.725-11.813-4.279-22.359-9.953-31.444-3.239-4.942-5.887-11.023-7.437-17.529-2.497-19.167-15.012-14.616-15.581-24.856s6.542-40.818 12.516-44.089zM699.307 311.182h-375.182c0 0-0.001 0-0.001 0-3.927 0-7.111 3.184-7.111 7.111 0 0.050 0.001 0.1 0.002 0.15 0 12.224 1.991 73.664 2.987 79.921v1.564c0.814 11.631 7.758 21.468 17.593 26.37 19.247 10.156 41.555 19.252 64.809 26.148 17.854 4.692 31.142 10.089 43.526 16.923 4.948 11.639 8.57 25.804 9.036 40.763-0.637 2.092-1.828 3.697-3.383 4.835-6.135 5.471-10.128 13.181-10.688 21.826l-1.854 1.801c-2.78 2.168-5.173 4.651-7.18 7.432-6.365 8.595-10.376 19.115-11.017 30.535-0.015 0.464-0.020 0.835-0.020 1.207 0 3.666 0.472 7.222 1.358 10.61 0.678 2.573 1.104 5.862 1.104 9.249 0 0.546-0.011 1.090-0.033 1.631l0.002 2.34c-0.005 0.511-0.008 1.115-0.008 1.72 0 18.661 2.81 36.665 8.030 53.613 4.151 14.121 13.495 26.924 25.898 35.688 4.045 3.011 8.876 4.735 14.11 4.735 1.371 0 2.714-0.118 4.020-0.345 2.285-0.168 5.11-0.275 7.96-0.275 10.893 0 21.422 1.562 31.373 4.475 2.008 0.14 5.246 0.332 8.529 0.332 20.371 0 39.012-7.41 53.374-19.682 12.29-8.166 20.905-21.275 23.037-36.463-0.019-1.749-0.049-3.479-0.049-5.215 0-10.483 1.065-20.717 3.092-30.6-0.167-1.583 0.97-4.427 1.539-8.552 0.247-2.265 0.85-4.334 1.756-6.231 1.622-3.398 2.598-7.519 2.598-11.869 0-0.787-0.032-1.567-0.095-2.339-0.907-12.606-4.917-24.213-11.264-34.188-2.631-4.076-4.875-9.146-6.284-14.553-0.669-9.463-5.651-17.28-12.907-21.775-2.534-1.774-2.534-1.774-2.534-2.485 0.888-13.896 4.361-26.779 9.942-38.461s-0.271 0.63-0.271 0.63v0c11.661-6.894 25.138-12.885 39.318-17.274 25.13-8.653 44.993-17.343 64.076-27.322 7.616-4.125 14.634-14.269 15.497-26.121 1.002-7.078 2.709-68.376 3.135-80.607 0.001-0.053 0.002-0.115 0.002-0.178 0-3.927-3.184-7.111-7.111-7.111-0.251 0-0.499 0.013-0.744 0.038zM331.378 325.404h360.676c-0.853 28.444-1.991 66.844-2.702 71.111-0.041 7.681-4.363 14.343-10.7 17.725-16.106 8.507-35.359 16.91-55.251 23.962-19.453 6.157-33.579 12.719-46.667 20.8-9.124 6.491-15.097 42.189-14.813 49.584 0.349 5.859 3.732 10.855 8.588 13.468 3.847 2.432 6.314 6.564 6.345 11.274 1.782 8.033 4.833 15.124 8.968 21.44 4.632 7.432 7.76 16.6 8.513 26.432 0.064 0.672 0.094 1.215 0.094 1.765 0 2.27-0.502 4.422-1.4 6.353-1.343 2.803-2.344 6.165-2.789 9.7-0.017 3.861-1.012 6.279-1.581 8.696-2.041 9.663-3.21 20.767-3.21 32.143 0 1.8 0.029 3.594 0.087 5.38-2.323 10.666-8.783 19.776-17.628 25.528-12.106 10.415-27.789 16.701-44.94 16.701-2.058 0-4.096-0.091-6.108-0.268-9.785-2.904-21.324-4.585-33.256-4.585-3.22 0-6.412 0.122-9.57 0.363-0.278 0.149-1.080 0.25-1.905 0.25-2.487 0-4.761-0.912-6.506-2.419-9.523-6.923-16.622-16.694-20.083-28.051-4.707-15.050-7.361-31.917-7.361-49.403 0-0.566 0.003-1.132 0.008-1.697l-0.001-2.332c0.023-0.582 0.036-1.266 0.036-1.952 0-4.355-0.532-8.585-1.534-12.63-0.48-1.741-0.799-4.154-0.799-6.641 0-0.389 0.008-0.776 0.023-1.162 0.666-8.605 3.823-16.419 8.747-22.799 1.25-1.63 2.748-3.128 4.42-4.41 3.696-2.412 6.232-6.212 6.874-10.627 0.009-0.16 0.008-0.251 0.008-0.343 0-5.628 2.594-10.65 6.653-13.935 4.050-3.346 6.807-8.064 7.559-13.426 0.866-10.921-5.818-46.618-15.489-54.014-12.732-7.57-27.456-13.76-43.046-17.801-26.115-7.528-47.576-16.238-67.911-26.814-4.206-1.886-8.485-7.982-8.652-15.097v-1.728c-1.707-3.698-2.844-42.667-3.698-70.542z" />
<glyph unicode="&#xe93e;" glyph-name="m_041_comment_thick" d="M402.062-5.262c-15.709 0-28.444 12.735-28.444 28.444 0 40.818 0 96.427 0 129.28h-196.978c-0.049 0-0.106 0-0.163 0-44.379 0-80.356 35.976-80.356 80.356 0 0.65 0.008 1.299 0.023 1.945l-0.002 544.9c-0.010 0.466-0.015 1.014-0.015 1.565 0 44.379 35.976 80.356 80.356 80.356 0.055 0 0.111 0 0.166 0h671.28c44.902-0.242 81.209-36.698 81.209-81.634 0-0.1 0-0.201-0.001-0.301v-544.98c0-0.085 0-0.185 0-0.286 0-44.936-36.307-81.393-81.186-81.634h-226.299l-202.524-152.32c-4.695-3.552-10.631-5.689-17.067-5.689zM176.64 804.551c-13.071-0.061-23.643-10.671-23.643-23.751 0-0.45 0.013-0.898 0.037-1.342l-0.003-544.792c-0.022-0.382-0.035-0.83-0.035-1.28 0-13.080 10.572-23.69 23.638-23.751h225.144c28.444 0 28.444-23.467 28.444-53.049v-76.231l164.551 123.591c4.695 3.552 10.631 5.689 17.067 5.689h236.089c0.003 0 0.007 0 0.010 0 13.432 0 24.32 10.888 24.32 24.32 0 0.25-0.004 0.499-0.011 0.747l0.001 544.959c0.007 0.212 0.010 0.461 0.010 0.711 0 13.432-10.888 24.32-24.32 24.32-0.004 0-0.007 0-0.011 0h-671.288z" />
<glyph unicode="&#xe93f;" glyph-name="m_042_start_thick" d="M515.271 37.404c-225.991 0-409.884 183.893-409.884 409.884s183.893 409.884 409.884 409.884c225.991 0 409.884-183.893 409.884-409.884s-183.893-409.884-409.884-409.884zM515.271 800.284c-194.702 0-352.996-158.293-352.996-352.996s158.293-352.996 352.996-352.996 352.996 158.293 352.996 352.996-158.293 352.996-352.996 352.996zM410.88 227.84c-4.836 0-9.529 1.138-13.938 3.698-8.96 4.978-14.507 14.507-14.507 24.747v382.151c0 10.382 5.547 19.769 14.649 24.889 8.96 4.978 20.053 4.836 28.871-0.569l310.898-191.858c8.391-5.262 13.511-14.364 13.511-24.32 0-9.813-5.12-19.058-13.653-24.178l-310.898-190.293c-4.693-2.987-9.813-4.267-14.933-4.267zM439.324 587.378v-280.32l228.124 139.662-228.124 140.658z" />
<glyph unicode="&#xe940;" glyph-name="m_042_start_thin" d="M485.404 48.924c-222.384 0.081-402.631 180.378-402.631 402.773 0 222.446 180.328 402.773 402.773 402.773s402.773-180.328 402.773-402.773c-0.243-222.398-180.506-402.611-402.9-402.773zM485.404 811.804c-198.82-0.081-359.964-161.275-359.964-360.107 0-198.881 161.225-360.107 360.107-360.107s360.107 161.225 360.107 360.107c-0.243 198.834-161.404 359.945-360.233 360.107zM381.013 239.36c-11.782 0-21.333 9.551-21.333 21.333v382.151c-0.002 0.106-0.003 0.231-0.003 0.356 0 11.782 9.551 21.333 21.333 21.333 4.162 0 8.045-1.192 11.327-3.252l310.667-192.232c6.165-3.813 10.211-10.536 10.211-18.204s-4.046-14.392-10.12-18.152l-310.989-190.204c-3.159-1.959-6.99-3.123-11.092-3.129zM402.347 604.444v-305.778l248.747 152.32z" />
<glyph unicode="&#xe941;" glyph-name="m_043_stop_thick" d="M512.711 37.404c-226.373 0-409.884 183.512-409.884 409.884s183.512 409.884 409.884 409.884c226.123 0 409.479-183.106 409.884-409.135 0-0.123 0-0.223 0-0.323 0-226.459-183.459-410.068-409.861-410.311zM512.711 800.284c-194.954 0-352.995-158.042-352.995-352.996s158.041-352.996 352.996-352.996c194.954 0 352.996 158.041 352.996 352.996 0 0.25 0 0.5-0.001 0.75-0.646 194.512-158.388 352.004-352.972 352.246zM669.867 263.111h-315.307c-15.709 0-28.444 12.735-28.444 28.444v314.596c0 15.709 12.735 28.444 28.444 28.444h315.307c15.709 0 28.444-12.735 28.444-28.444v-314.596c0-15.709-12.735-28.444-28.444-28.444zM383.004 320h258.418v257.707h-258.418z" />
<glyph unicode="&#xe942;" glyph-name="m_043_stop_thin" d="M483.556 48.924c-0.211 0-0.461-0.001-0.711-0.001-222.446 0-402.773 180.328-402.773 402.773s180.328 402.773 402.773 402.773c222.445 0 402.773-180.327 402.773-402.773-0.242-222.098-180.020-402.127-402-402.773zM483.556 811.804c-0.211 0-0.461 0.001-0.711 0.001-198.881 0-360.107-161.225-360.107-360.107s161.225-360.107 360.107-360.107c198.881 0 360.106 161.225 360.107 360.106-0.241 198.534-160.917 359.46-359.334 360.106zM640 275.2h-315.307c-11.782 0-21.333 9.551-21.333 21.333v314.027c0 11.782 9.551 21.333 21.333 21.333h315.307c11.782 0 21.333-9.551 21.333-21.333v-314.027c0-11.782-9.551-21.333-21.333-21.333zM345.884 317.867h272.782v271.36h-272.64z" />
<glyph unicode="&#xe943;" glyph-name="m_044_control_play_thick" d="M390.684 138.24c-16.071 0-32.142 4.124-47.076 12.516-32.142 18.062-52.196 52.907-52.196 91.022v404.48c0 38.116 20.053 72.96 52.196 91.022 30.72 17.209 67.129 16.498 97.28-1.849l330.951-202.24c30.72-18.773 49.067-52.053 49.067-89.173s-18.347-70.4-49.067-89.173l-330.951-202.24c-15.644-9.671-32.853-14.364-50.204-14.364zM390.684 692.764c-6.542 0-13.084-1.707-19.2-5.12-14.507-8.107-23.182-23.609-23.182-41.387v-404.48c0-17.778 8.676-33.28 23.182-41.387 12.8-7.111 27.164-6.827 39.68 0.853l330.951 202.24c13.653 8.391 21.76 23.467 21.76 40.676s-8.107 32.284-21.76 40.676l-330.951 202.24c-6.4 3.698-13.511 5.689-20.48 5.689z" />
<glyph unicode="&#xe944;" glyph-name="m_044_control_play_thin" d="M387.413 145.778c-16.005 0.045-31.004 4.314-43.953 11.749-28.846 16.799-48.216 48.026-48.216 83.776 0 0.467 0.003 0.933 0.010 1.398l-0.001 404.409c-0.006 0.395-0.009 0.861-0.009 1.328 0 35.751 19.37 66.977 48.188 83.757 12.983 7.507 28.012 11.791 44.041 11.791 17.203 0 33.253-4.934 46.813-13.464l330.586-203.021c27.596-17.777 45.61-48.349 45.61-83.129s-18.014-65.351-45.222-82.894l-331.34-202.475c-13.228-8.271-29.289-13.189-46.496-13.227zM387.413 700.444c-8.331-0.061-16.121-2.324-22.833-6.234-15.961-9.28-26.667-26.529-26.667-46.279 0-0.289 0.002-0.577 0.007-0.865l-0.001-404.863c-0.010-0.394-0.016-0.858-0.016-1.324 0-19.696 10.648-36.905 26.502-46.184 6.75-3.943 14.56-6.191 22.896-6.191 9.012 0 17.411 2.628 24.471 7.159l330.77 202.131c15.278 10.14 25.213 27.27 25.213 46.72s-9.935 36.58-25.006 46.591l-331.015 202.227c-6.899 4.4-15.294 7.039-24.301 7.111z" />
<glyph unicode="&#xe945;" glyph-name="m_045_control_rewind_thick" d="M645.262 138.24c-17.351 0-34.56 4.836-50.204 14.364l-330.951 202.24c-30.72 18.773-48.924 52.053-48.924 89.173s18.347 70.4 48.924 89.173l330.951 202.24c30.151 18.347 66.418 19.058 97.28 1.849 32.284-18.062 52.196-52.907 52.196-91.022v-404.48c0-38.116-20.053-72.96-52.196-91.022-14.791-8.391-31.004-12.516-47.076-12.516zM645.262 692.764c-6.969 0-14.080-1.991-20.48-5.973l-330.951-202.24c-13.653-8.391-21.76-23.467-21.76-40.676s8.107-32.284 21.76-40.676l330.951-202.24c12.516-7.68 27.022-7.964 39.68-0.853 14.507 8.107 23.182 23.609 23.182 41.387v404.48c0 17.778-8.676 33.28-23.182 41.387-6.116 3.698-12.658 5.404-19.2 5.404z" />
<glyph unicode="&#xe946;" glyph-name="m_045_control_rewind_thin" d="M641.991 145.778c-17.218 0.029-33.281 4.949-46.881 13.445l-330.577 202.164c-27.596 17.777-45.61 48.349-45.61 83.129s18.014 65.351 45.222 82.894l331.34 202.333c13.194 8.316 29.245 13.25 46.447 13.25 16.029 0 31.058-4.284 44.003-11.769 28.855-16.802 48.225-48.029 48.225-83.779 0-0.467-0.003-0.933-0.010-1.398l0.001-403.841c0.006-0.395 0.009-0.861 0.009-1.328 0-35.751-19.37-66.977-48.188-83.757-12.861-7.23-27.683-11.343-43.465-11.343-0.182 0-0.363 0.001-0.544 0.002zM641.991 700.444c-9.010-0.026-17.41-2.617-24.513-7.082l-330.616-202.696c-15.278-10.14-25.213-27.27-25.213-46.72s9.935-36.58 25.006-46.591l331.157-201.942c6.874-4.437 15.272-7.074 24.287-7.074 8.34 0 16.152 2.257 22.86 6.194 15.893 9.301 26.541 26.509 26.541 46.205 0 0.465-0.006 0.93-0.018 1.392l0.001 404.98c0.010 0.394 0.016 0.858 0.016 1.324 0 19.696-10.648 36.905-26.502 46.184-6.654 3.719-14.3 5.829-22.438 5.829-0.2 0-0.4-0.001-0.6-0.004z" />
<glyph unicode="&#xe947;" glyph-name="m_046_control_fast_forward_thick" d="M877.653 533.191l-330.951 202.24c-30.151 18.347-66.56 19.058-97.28 1.849-32.284-18.062-52.196-52.907-52.196-91.022v-51.342l-164.409 100.409c-27.022 16.498-59.449 17.067-86.898 1.707-28.729-16.071-46.507-47.218-46.507-81.067v-343.893c0-33.991 17.778-64.996 46.507-81.067 13.227-7.396 27.591-11.093 42.098-11.093 15.502 0 30.862 4.267 44.942 12.8l164.409 100.409v-51.342c0-38.116 20.053-72.96 52.196-91.022 14.791-8.249 30.862-12.516 47.076-12.516 17.351 0 34.56 4.836 50.204 14.364l330.951 202.24c30.72 18.773 49.067 52.053 49.067 89.173s-18.489 70.4-49.209 89.173zM203.236 241.209c-12.8-7.822-23.893-3.698-29.44-0.569-10.951 6.116-17.493 17.92-17.493 31.431v343.893c0 13.511 6.542 25.316 17.493 31.431 3.129 1.707 8.249 3.84 14.364 3.84 4.551 0 9.671-1.138 15.076-4.409l193.991-118.613v-168.533l-193.991-118.471zM454.116 493.369l30.436-18.631c10.382-6.258 16.498-17.778 16.498-30.862s-6.116-24.604-16.498-30.862l-30.436-18.631v98.987zM847.929 403.342l-330.951-202.24c-12.516-7.68-27.022-7.964-39.68-0.853-14.507 8.107-23.182 23.609-23.182 41.387v86.187l60.018 36.693c27.307 16.782 43.662 46.364 43.662 79.36s-16.356 62.72-43.662 79.36l-60.018 36.693v86.187c0 17.778 8.676 33.28 23.182 41.387 6.116 3.413 12.658 5.12 19.2 5.12 6.969 0 14.080-1.991 20.48-5.973l330.951-202.24c13.653-8.391 21.76-23.467 21.76-40.676s-8.107-32-21.76-40.391z" />
<glyph unicode="&#xe948;" glyph-name="m_046_control_fast_forward_thin" d="M493.227 145.778c-16.005 0.045-31.004 4.314-43.953 11.749-28.846 16.799-48.216 48.026-48.216 83.776 0 0.467 0.003 0.933 0.010 1.398l-0.001 404.409c-0.006 0.395-0.009 0.861-0.009 1.328 0 35.751 19.37 66.977 48.188 83.757 12.983 7.507 28.012 11.791 44.041 11.791 17.203 0 33.253-4.934 46.813-13.464l330.586-203.021c27.596-17.777 45.61-48.349 45.61-83.129s-18.014-65.351-45.222-82.894l-330.629-202.475c-13.28-8.304-29.413-13.228-46.695-13.228-0.184 0-0.367 0.001-0.551 0.002zM493.227 700.444c-8.331-0.061-16.121-2.324-22.833-6.234-15.961-9.28-26.667-26.529-26.667-46.279 0-0.289 0.002-0.577 0.007-0.865l-0.001-404.863c-0.010-0.394-0.016-0.858-0.016-1.324 0-19.696 10.648-36.905 26.502-46.184 6.75-3.943 14.56-6.191 22.896-6.191 9.012 0 17.411 2.628 24.471 7.159l330.77 202.131c15.278 10.14 25.213 27.27 25.213 46.72s-9.935 36.58-25.006 46.591l-331.015 202.227c-6.899 4.4-15.294 7.039-24.301 7.111zM184.889 187.307c-14.179 0.049-27.461 3.843-38.924 10.442-25.309 14.826-42.292 42.281-42.292 73.702 0 0.368 0.002 0.735 0.007 1.102l-0.001 343.838c-0.004 0.311-0.006 0.679-0.006 1.047 0 31.421 16.983 58.876 42.27 73.687 11.488 6.645 24.793 10.437 38.984 10.437 15.265 0 29.505-4.389 41.527-11.973l280.709-171.757c24.415-15.66 40.362-42.661 40.362-73.387s-15.947-57.727-40.016-73.179l-281.519-172.154c-11.683-7.343-25.873-11.728-41.081-11.804zM184.889 658.773c-6.489-0.025-12.566-1.763-17.81-4.786-12.594-7.439-21.025-21.125-21.025-36.78 0-0.287 0.003-0.573 0.008-0.859l-0.001-343.851c-0.008-0.309-0.013-0.674-0.013-1.039 0-15.599 8.371-29.243 20.866-36.684 5.288-3.11 11.415-4.883 17.956-4.883 7.024 0 13.57 2.045 19.075 5.571l281.032 172.004c12.031 8.064 19.845 21.609 19.845 36.978s-7.814 28.913-19.685 36.877l-281.475 172.048c-5.337 3.352-11.816 5.358-18.761 5.404z" />
<glyph unicode="&#xe949;" glyph-name="m_047_control_fast_rewind_thick" d="M875.804 697.031c-27.449 15.36-60.018 14.791-86.898-1.707l-160.711-98.276v49.209c0 38.116-20.053 72.96-52.196 91.022-30.72 17.209-67.129 16.498-97.28-1.849l-330.951-202.24c-30.72-18.773-48.924-52.053-48.924-89.173s18.347-70.4 48.924-89.173l330.951-202.24c15.644-9.529 32.853-14.364 50.204-14.364 16.071 0 32.142 4.124 47.076 12.516 32.142 18.062 52.196 52.907 52.196 91.022v49.209l160.711-98.276c13.938-8.533 29.44-12.8 44.942-12.8 14.364 0 28.871 3.698 42.098 11.093 28.729 16.071 46.507 47.218 46.507 81.067v343.893c0 33.849-17.92 64.996-46.649 81.067zM571.307 241.636c0-17.778-8.676-33.28-23.182-41.387-12.8-7.111-27.164-6.827-39.68 0.853l-330.951 202.24c-13.653 8.391-21.76 23.467-21.76 40.676s8.107 32.284 21.76 40.676l330.951 202.24c6.542 3.982 13.511 5.973 20.48 5.973 6.542 0 13.084-1.707 19.2-5.12 14.507-8.107 23.182-23.609 23.182-41.387v-83.911l-63.573-38.827c-27.307-16.782-43.662-46.364-43.662-79.36s16.356-62.72 43.662-79.36l63.573-38.827v-84.48zM571.307 495.644v-103.253l-33.991 20.764c-10.382 6.258-16.498 17.778-16.498 30.862s6.116 24.604 16.498 30.862l33.991 20.764zM865.564 272.071c0-13.511-6.542-25.316-17.493-31.431-5.547-3.129-16.782-7.111-29.44 0.569l-190.436 116.338v172.8l190.436 116.338c12.658 7.822 23.893 3.698 29.44 0.569 10.951-6.116 17.493-17.92 17.493-31.431v-343.751z" />
<glyph unicode="&#xe94a;" glyph-name="m_047_control_fast_rewind_thin" d="M830.578 187.307c-15.278 0.048-29.522 4.437-41.573 11.997l-280.987 171.754c-24.415 15.66-40.362 42.661-40.362 73.387s15.947 57.727 40.016 73.179l281.661 172.154c11.706 7.381 25.946 11.76 41.209 11.76 14.187 0 27.49-3.784 38.955-10.397 25.313-14.827 42.296-42.282 42.296-73.704 0-0.368-0.002-0.735-0.007-1.102l0.001-343.838c0.004-0.311 0.006-0.679 0.006-1.047 0-31.421-16.983-58.876-42.27-73.687-11.484-6.615-24.766-10.409-38.931-10.458zM830.578 658.773c-7.021-0.073-13.548-2.129-19.063-5.634l-281.168-171.717c-12.095-8.024-19.961-21.582-19.961-36.978s7.866-28.954 19.798-36.876l281.479-172.049c5.364-3.442 11.91-5.486 18.934-5.486 6.541 0 12.668 1.773 17.926 4.866 12.602 7.442 21.033 21.127 21.033 36.782 0 0.287-0.003 0.573-0.008 0.859l0.001 343.851c0.005 0.243 0.008 0.529 0.008 0.816 0 15.655-8.431 29.34-21 36.764-5.306 3.060-11.433 4.802-17.967 4.802-0.003 0-0.006 0-0.010 0zM526.222 145.778c-17.218 0.029-33.281 4.949-46.881 13.445l-331.146 202.164c-27.596 17.777-45.61 48.349-45.61 83.129s18.014 65.351 45.222 82.894l331.34 202.333c13.191 8.31 29.235 13.24 46.431 13.24 15.921 0 30.855-4.226 43.741-11.618 28.85-16.801 48.22-48.028 48.22-83.778 0-0.467-0.003-0.933-0.010-1.398l0.001-403.983c0.006-0.395 0.009-0.861 0.009-1.328 0-35.751-19.37-66.977-48.188-83.757-12.765-7.175-27.46-11.28-43.11-11.341zM526.222 700.444c-9.010-0.026-17.41-2.617-24.513-7.082l-331.043-202.696c-15.278-10.14-25.213-27.27-25.213-46.72s9.935-36.58 25.006-46.591l330.873-201.942c6.874-4.437 15.272-7.074 24.287-7.074 8.34 0 16.152 2.257 22.86 6.194 15.893 9.301 26.541 26.509 26.541 46.205 0 0.465-0.006 0.93-0.018 1.392l0.001 404.98c0.010 0.394 0.016 0.858 0.016 1.324 0 19.696-10.648 36.905-26.502 46.184-6.614 3.696-14.207 5.801-22.29 5.826z" />
<glyph unicode="&#xe94b;" glyph-name="m_048_control_goto_end_thick" d="M239.929 138.24c-16.071 0-32.142 4.124-47.076 12.516-32.142 18.062-52.196 52.907-52.196 91.022v404.48c0 38.116 20.053 72.96 52.196 91.022 30.72 17.209 67.129 16.498 97.28-1.849l330.951-202.24c30.72-18.773 49.067-52.053 49.067-89.173s-18.347-70.4-49.067-89.173l-330.951-202.24c-15.502-9.671-32.853-14.364-50.204-14.364zM239.929 692.764c-6.542 0-13.084-1.707-19.2-5.12-14.507-8.107-23.182-23.609-23.182-41.387v-404.48c0-17.778 8.676-33.28 23.182-41.387 12.8-7.111 27.164-6.827 39.68 0.853l330.951 202.24c13.653 8.391 21.76 23.467 21.76 40.676s-8.107 32.284-21.76 40.676l-330.951 202.24c-6.4 3.698-13.369 5.689-20.48 5.689zM852.48 163.129h-103.111c-15.644 0-28.444 12.8-28.444 28.444v511.858c0 15.644 12.8 28.444 28.444 28.444h103.111c15.644 0 28.444-12.8 28.444-28.444v-511.858c0-15.787-12.8-28.444-28.444-28.444zM777.813 220.018h46.222v454.969h-46.222v-454.969z" />
<glyph unicode="&#xe94c;" glyph-name="m_048_control_goto_end_thin" d="M236.658 145.778c-16.005 0.045-31.004 4.314-43.953 11.749-28.846 16.799-48.216 48.026-48.216 83.776 0 0.467 0.003 0.933 0.010 1.398l-0.001 404.409c-0.006 0.395-0.009 0.861-0.009 1.328 0 35.751 19.37 66.977 48.188 83.757 12.983 7.507 28.012 11.791 44.041 11.791 17.203 0 33.253-4.934 46.813-13.464l330.586-203.021c27.596-17.777 45.61-48.349 45.61-83.129s-18.014-65.351-45.222-82.894l-331.34-202.475c-13.228-8.271-29.289-13.189-46.496-13.227zM236.658 700.444c-8.331-0.061-16.121-2.324-22.833-6.234-15.882-9.299-26.526-26.505-26.526-46.198 0-0.317 0.003-0.634 0.008-0.95l-0.001-404.859c-0.010-0.394-0.016-0.858-0.016-1.324 0-19.696 10.648-36.905 26.502-46.184 6.75-3.943 14.56-6.191 22.896-6.191 9.012 0 17.411 2.628 24.471 7.159l330.77 202.131c15.278 10.14 25.213 27.27 25.213 46.72s-9.935 36.58-25.006 46.591l-331.157 202.227c-6.899 4.4-15.294 7.039-24.301 7.111zM849.209 170.667h-103.111c-11.535 0.317-20.764 9.744-20.764 21.326 0 0.003 0 0.005 0 0.008v512c0 11.782 9.551 21.333 21.333 21.333h103.111c11.782 0 21.333-9.551 21.333-21.333v-512c0-0.002 0-0.005 0-0.008 0-11.782-9.551-21.333-21.333-21.333-0.2 0-0.399 0.003-0.598 0.008zM768 213.333h60.444v469.333h-60.444z" />
<glyph unicode="&#xe94d;" glyph-name="m_049_control_goto_start_thick" d="M784.071 138.24c-17.351 0-34.56 4.836-50.204 14.364l-330.951 202.24c-30.72 18.773-49.067 52.053-49.067 89.173s18.347 70.4 49.067 89.173l330.951 202.24c30.151 18.347 66.418 19.058 97.28 1.849 32.284-18.062 52.196-52.907 52.196-91.022v-404.48c0-38.116-20.053-72.96-52.196-91.022-14.933-8.391-31.004-12.516-47.076-12.516zM763.449 201.102c12.516-7.68 27.022-7.964 39.68-0.853 14.507 8.107 23.182 23.609 23.182 41.387v404.48c0 17.778-8.676 33.28-23.182 41.387-12.8 7.111-27.164 6.827-39.68-0.853l-330.951-202.24c-13.653-8.391-21.76-23.467-21.76-40.676s8.107-32.284 21.76-40.676l330.951-201.956zM274.631 163.129h-103.111c-15.644 0-28.444 12.8-28.444 28.444v511.858c0 15.644 12.8 28.444 28.444 28.444h103.111c15.644 0 28.444-12.8 28.444-28.444v-511.858c0-15.787-12.658-28.444-28.444-28.444zM199.964 220.018h46.222v454.969h-46.222v-454.969z" />
<glyph unicode="&#xe94e;" glyph-name="m_049_control_goto_start_thin" d="M780.8 145.778c-17.218 0.029-33.281 4.949-46.881 13.445l-330.577 202.164c-27.596 17.777-45.61 48.349-45.61 83.129s18.014 65.351 45.222 82.894l331.34 202.333c13.283 8.466 29.473 13.494 46.838 13.494 16.101 0 31.193-4.323 44.178-11.871 28.859-16.803 48.229-48.029 48.229-83.78 0-0.467-0.003-0.933-0.010-1.398l0.001-403.983c0.006-0.395 0.009-0.861 0.009-1.328 0-35.751-19.37-66.977-48.188-83.757-12.864-7.233-27.688-11.348-43.474-11.348-0.378 0-0.756 0.002-1.133 0.007zM756.48 195.413c6.874-4.437 15.272-7.074 24.287-7.074 8.34 0 16.152 2.257 22.86 6.194 15.893 9.301 26.541 26.509 26.541 46.205 0 0.465-0.006 0.93-0.018 1.392l0.001 404.98c0.010 0.394 0.016 0.858 0.016 1.324 0 19.696-10.648 36.905-26.502 46.184-6.75 3.943-14.56 6.191-22.896 6.191-9.012 0-17.411-2.628-24.471-7.159l-330.628-202.985c-15.278-10.14-25.213-27.27-25.213-46.72s9.935-36.58 25.006-46.591zM271.36 170.667h-103.111c-11.782 0-21.333 9.551-21.333 21.333v512c0 11.782 9.551 21.333 21.333 21.333h103.111c11.782 0 21.333-9.551 21.333-21.333v-512c0-11.782-9.551-21.333-21.333-21.333zM189.582 213.333h60.444v469.333h-60.444z" />
<glyph unicode="&#xe94f;" glyph-name="m_050_control_pause_thick" d="M411.164 163.129h-103.111c-15.644 0-28.444 12.8-28.444 28.444v511.858c0 15.644 12.8 28.444 28.444 28.444h103.111c15.644 0 28.444-12.8 28.444-28.444v-511.858c0-15.787-12.8-28.444-28.444-28.444zM336.498 220.018h46.222v454.969h-46.222v-454.969zM722.916 163.129h-103.111c-15.644 0-28.444 12.8-28.444 28.444v511.858c0 15.644 12.8 28.444 28.444 28.444h103.111c15.644 0 28.444-12.8 28.444-28.444v-511.858c0-15.787-12.658-28.444-28.444-28.444zM648.249 220.018h46.222v454.969h-46.222v-454.969z" />
<glyph unicode="&#xe950;" glyph-name="m_050_control_pause_thin" d="M407.893 170.667h-103.111c-11.782 0-21.333 9.551-21.333 21.333v512c0 11.782 9.551 21.333 21.333 21.333h103.111c11.782 0 21.333-9.551 21.333-21.333v-512c0-11.782-9.551-21.333-21.333-21.333zM326.116 213.333h60.444v469.333h-60.444zM719.644 170.667h-103.111c-11.782 0-21.333 9.551-21.333 21.333v512c0 11.782 9.551 21.333 21.333 21.333h103.111c11.782 0 21.333-9.551 21.333-21.333v-512c0-11.782-9.551-21.333-21.333-21.333zM637.867 213.333h60.444v469.333h-60.444z" />
<glyph unicode="&#xe951;" glyph-name="m_051_control_stop_thick" d="M763.449 163.129h-500.907c-15.644 0-28.444 12.8-28.444 28.444v511.858c0 15.644 12.8 28.444 28.444 28.444h500.907c15.644 0 28.444-12.8 28.444-28.444v-511.858c0-15.787-12.8-28.444-28.444-28.444zM290.844 220.018h444.018v454.969h-444.018v-454.969z" />
<glyph unicode="&#xe952;" glyph-name="m_051_control_stop_thin" d="M760.178 170.667h-501.049c-11.782 0-21.333 9.551-21.333 21.333v512c0 11.782 9.551 21.333 21.333 21.333h501.049c11.782 0 21.333-9.551 21.333-21.333v-512c0-11.782-9.551-21.333-21.333-21.333zM280.604 213.333h458.24v469.333h-458.382z" />
<glyph unicode="&#xe953;" glyph-name="m_052_view_tile_thick" d="M444.018 485.831h-321.28c-15.709 0-28.444 12.735-28.444 28.444v319.147c0 15.709 12.735 28.444 28.444 28.444h321.28c15.709 0 28.444-12.735 28.444-28.444v-319.147c0-15.709-12.735-28.444-28.444-28.444zM151.182 542.72h264.391v262.258h-264.391v-262.258zM894.151 485.831h-321.28c-15.709 0-28.444 12.735-28.444 28.444v319.147c0 15.709 12.735 28.444 28.444 28.444h321.28c15.709 0 28.444-12.735 28.444-28.444v-319.147c0-15.709-12.735-28.444-28.444-28.444zM601.316 542.72h264.391v262.258h-264.391v-262.258zM444.018 35.556h-321.28c-15.709 0-28.444 12.735-28.444 28.444v319.289c0 15.709 12.735 28.444 28.444 28.444h321.28c15.709 0 28.444-12.735 28.444-28.444v-319.289c0-15.709-12.735-28.444-28.444-28.444zM151.182 92.444h264.391v262.4h-264.391v-262.4zM894.151 35.556h-321.28c-15.709 0-28.444 12.735-28.444 28.444v319.289c0 15.709 12.735 28.444 28.444 28.444h321.28c15.709 0 28.444-12.735 28.444-28.444v-319.289c0-15.709-12.735-28.444-28.444-28.444zM601.316 92.444h264.391v262.4h-264.391v-262.4z" />
<glyph unicode="&#xe954;" glyph-name="m_052_view_tile_thin" d="M445.867 492.8h-321.28c-11.782 0-21.333 9.551-21.333 21.333v319.147c0 11.782 9.551 21.333 21.333 21.333h321.28c11.782 0 21.333-9.551 21.333-21.333v-319.147c0-11.782-9.551-21.333-21.333-21.333zM145.92 535.467h278.613v276.48h-278.613v-276.48zM896 492.8h-321.28c-11.782 0-21.333 9.551-21.333 21.333v319.147c0 11.782 9.551 21.333 21.333 21.333h321.28c11.782 0 21.333-9.551 21.333-21.333v-319.147c0-11.782-9.551-21.333-21.333-21.333zM596.053 535.467h278.613v276.48h-278.613v-276.48zM445.867 42.667h-321.28c-11.782 0-21.333 9.551-21.333 21.333v319.147c0 11.782 9.551 21.333 21.333 21.333h321.28c11.782 0 21.333-9.551 21.333-21.333v-319.147c0-11.782-9.551-21.333-21.333-21.333zM145.92 85.333h278.613v276.48h-278.613v-276.48zM896 42.667h-321.28c-11.782 0-21.333 9.551-21.333 21.333v319.147c0 11.782 9.551 21.333 21.333 21.333h321.28c11.782 0 21.333-9.551 21.333-21.333v-319.147c0-11.782-9.551-21.333-21.333-21.333zM596.053 85.333h278.613v276.48h-278.613v-276.48z" />
<glyph unicode="&#xe955;" glyph-name="m_053_view_list_thick" d="M191.573 832.284h640.142v-56.889h-640.142v56.889zM191.573 654.791h640.142v-56.889h-640.142v56.889zM191.573 477.298h640.142v-56.889h-640.142v56.889zM191.573 299.804h640.142v-56.889h-640.142v56.889zM191.573 122.311h640.142v-56.889h-640.142v56.889z" />
<glyph unicode="&#xe956;" glyph-name="m_053_view_list_thin" d="M189.298 824.604h640.142v-42.667h-640.142v42.667zM189.298 472.036h640.142v-42.667h-640.142v42.667zM189.298 648.249h640.142v-42.667h-640.142v42.667zM189.298 295.822h640.142v-42.667h-640.142v42.667zM189.298 119.467h640.142v-42.667h-640.142v42.667z" />
<glyph unicode="&#xe957;" glyph-name="m_054_file_thick" d="M777.244 35.556h-526.222c-31.419 0-56.889 25.47-56.889 56.889v706.987c0 31.419 25.47 56.889 56.889 56.889h361.529c14.772-0.043 28.212-5.71 38.299-14.971l164.794-151.571c11.217-10.421 18.212-25.253 18.212-41.719 0-0.333-0.003-0.666-0.009-0.998l0.001-554.617c0 0 0 0 0-0.001 0-31.319-25.308-56.727-56.589-56.888zM777.244 92.444v0zM612.267 799.289h-360.676v-706.987h525.369v554.809z" />
<glyph unicode="&#xe958;" glyph-name="m_054_file_thin" d="M779.947 42.809h-526.222c-27.105 0.401-48.924 22.468-48.924 49.63 0 0.002 0 0.004 0 0.005v707.129c0.081 27.302 22.191 49.413 49.486 49.493h360.968c0.028 0 0.061 0 0.094 0 12.933 0 24.703-4.974 33.503-13.114l164.661-151.579c9.789-9.098 15.902-22.037 15.929-36.404v-555.525c0 0 0 0 0 0 0-27.363-22.142-49.554-49.486-49.635zM253.724 806.4c-3.77 0-6.827-3.056-6.827-6.827v-707.129c-0.001-0.042-0.001-0.092-0.001-0.142 0-3.77 3.056-6.827 6.827-6.827 0.001 0 0.001 0 0.002 0h526.222c0 0 0.001 0 0.001 0 3.77 0 6.827 3.056 6.827 6.827 0 0.050-0.001 0.1-0.002 0.15v555.37c-0.009 2.027-0.883 3.848-2.27 5.115l-164.699 151.756c-1.218 1.145-2.863 1.849-4.672 1.849-0.008 0-0.015 0-0.023 0h-360.817z" />
<glyph unicode="&#xe959;" glyph-name="m_055_doc_thick" d="M638.151 536.747h-255.147c-15.709 0-28.444 12.735-28.444 28.444s12.735 28.444 28.444 28.444h255.147c15.709 0 28.444-12.735 28.444-28.444s-12.735-28.444-28.444-28.444zM638.151 389.547h-255.147c-15.709 0-28.444 12.735-28.444 28.444s12.735 28.444 28.444 28.444h255.147c15.709 0 28.444-12.735 28.444-28.444s-12.735-28.444-28.444-28.444zM638.151 242.204h-255.147c-15.709 0-28.444 12.735-28.444 28.444s12.735 28.444 28.444 28.444h255.147c15.709 0 28.444-12.735 28.444-28.444s-12.735-28.444-28.444-28.444zM775.538 35.556h-526.222c-31.419 0-56.889 25.47-56.889 56.889v706.987c0 31.419 25.47 56.889 56.889 56.889h361.529c14.823-0.005 28.32-5.679 38.441-14.971l164.652-151.571c11.217-10.421 18.212-25.253 18.212-41.719 0-0.333-0.003-0.666-0.009-0.998l0.001-554.617c0 0 0 0 0-0.001 0-31.319-25.308-56.727-56.589-56.888zM775.538 92.444v0zM610.56 799.289h-360.676v-706.987h525.369v554.809z" />
<glyph unicode="&#xe95a;" glyph-name="m_055_doc_thin" d="M640.853 537.031h-255.147c-15.709 0-28.444 12.735-28.444 28.444s12.735 28.444 28.444 28.444h255.147c15.709 0 28.444-12.735 28.444-28.444s-12.735-28.444-28.444-28.444zM640.853 389.689h-255.147c-15.709 0-28.444 12.735-28.444 28.444s12.735 28.444 28.444 28.444h255.147c15.709 0 28.444-12.735 28.444-28.444s-12.735-28.444-28.444-28.444zM640.853 242.347h-255.147c-15.709 0-28.444 12.735-28.444 28.444s12.735 28.444 28.444 28.444h255.147c15.709 0 28.444-12.735 28.444-28.444s-12.735-28.444-28.444-28.444zM778.24 42.809h-526.222c-27.105 0.401-48.924 22.468-48.924 49.63 0 0.002 0 0.004 0 0.005v707.129c0.081 27.352 22.272 49.493 49.635 49.493 0 0 0 0 0 0h360.818c0.011 0 0.025 0 0.039 0 12.95 0 24.739-4.974 33.56-13.115l164.66-151.578c9.789-9.098 15.902-22.037 15.929-36.404v-555.525c0 0 0 0 0 0 0-27.363-22.142-49.554-49.486-49.635zM252.018 806.4c-3.77 0-6.827-3.056-6.827-6.827v-707.129c-0.001-0.042-0.001-0.092-0.001-0.142 0-3.77 3.056-6.827 6.827-6.827 0.001 0 0.001 0 0.002 0h526.222c0 0 0.001 0 0.001 0 3.77 0 6.827 3.056 6.827 6.827 0 0.050-0.001 0.1-0.002 0.15v555.37c-0.16 2.108-1.235 3.937-2.825 5.106l-164.144 151.765c-1.218 1.145-2.863 1.849-4.672 1.849-0.008 0-0.015 0-0.023 0h-360.674z" />
<glyph unicode="&#xe95b;" glyph-name="m_056_report_thick" d="M514.702 217.031c-15.709 0-28.444 12.735-28.444 28.444v264.676c0 15.709 12.735 28.444 28.444 28.444s28.444-12.735 28.444-28.444v-264.676c0-15.709-12.735-28.444-28.444-28.444zM385.849 217.031c-15.709 0-28.444 12.735-28.444 28.444v331.52c0 15.709 12.735 28.444 28.444 28.444s28.444-12.735 28.444-28.444v-331.52c0-15.709-12.735-28.444-28.444-28.444zM643.556 213.618c-15.709 0-28.444 12.735-28.444 28.444v205.938c0 15.709 12.735 28.444 28.444 28.444s28.444-12.735 28.444-28.444v-205.938c0-15.709-12.735-28.444-28.444-28.444zM773.689 35.556h-526.222c-31.419 0-56.889 25.47-56.889 56.889v706.987c0 31.419 25.47 56.889 56.889 56.889h361.529c14.772-0.043 28.212-5.71 38.299-14.971l164.794-151.571c11.217-10.421 18.212-25.253 18.212-41.719 0-0.333-0.003-0.666-0.009-0.998l0.001-554.617c0 0 0 0 0-0.001 0-31.319-25.308-56.727-56.589-56.888zM773.689 92.444v0zM608.853 799.289h-360.676v-706.987h525.227v554.809z" />
<glyph unicode="&#xe95c;" glyph-name="m_056_report_thin" d="M481.849 510.436h71.111v-264.676h-71.111v264.676zM352.996 577.138h71.111v-331.52h-71.111v331.52zM610.844 448.711h71.111v-206.507h-71.111v206.507zM776.391 42.809h-526.222c-27.043 0.48-48.782 22.515-48.782 49.628 0 0.003 0 0.005 0 0.008v707.128c0.081 27.302 22.191 49.413 49.486 49.493h360.683c0.028 0 0.061 0 0.094 0 12.933 0 24.703-4.974 33.503-13.114l165.514-151.579c9.789-9.098 15.902-22.037 15.929-36.404v-555.525c0-0.001 0-0.002 0-0.003 0-27.413-22.223-49.636-49.636-49.636-0.2 0-0.4 0.001-0.599 0.004zM250.169 806.4c-3.77 0-6.827-3.056-6.827-6.827v-707.129c-0.001-0.042-0.001-0.092-0.001-0.142 0-3.77 3.056-6.827 6.827-6.827 0.001 0 0.001 0 0.002 0h526.222c0.043-0.001 0.093-0.002 0.144-0.002 3.77 0 6.827 3.056 6.827 6.827 0 0.051-0.001 0.101-0.002 0.151v555.37c-0.009 2.027-0.883 3.848-2.27 5.115l-164.699 151.756c-1.198 1.064-2.785 1.714-4.523 1.714-0.11 0-0.219-0.003-0.327-0.008l-360.66 0.001z" />
<glyph unicode="&#xe95d;" glyph-name="m_057_export_to_doc_thick" d="M634.596 594.204h-255.289c-15.709 0-28.444 12.735-28.444 28.444s12.735 28.444 28.444 28.444h255.289c15.709 0 28.444-12.735 28.444-28.444s-12.735-28.444-28.444-28.444zM634.596 464.782h-255.289c-15.709 0-28.444 12.735-28.444 28.444s12.735 28.444 28.444 28.444h255.289c15.709 0 28.444-12.735 28.444-28.444s-12.735-28.444-28.444-28.444zM771.982 110.791h-526.222c-31.419 0-56.889 25.47-56.889 56.889v606.578c0 31.419 25.47 56.889 56.889 56.889h361.387c14.823-0.005 28.32-5.679 38.441-14.971l165.079-151.856c11.255-10.391 18.295-25.204 18.347-41.662v-455.121c-0.081-31.358-25.52-56.747-56.889-56.747-0.050 0-0.1 0-0.15 0zM771.982 167.68v0zM607.004 774.116h-360.676v-606.578h525.369v455.111zM636.16 206.507l-129.138 128.996-129.138-128.996-40.249 40.107 169.387 169.387 169.244-169.387-40.107-40.107zM478.578 374.187h56.889v-380.444h-56.889v380.444z" />
<glyph unicode="&#xe95e;" glyph-name="m_057_export_to_doc_thin" d="M627.2 651.52h-255.289c-15.709 0-28.444-12.735-28.444-28.444s12.735-28.444 28.444-28.444h255.289c15.709 0 28.444 12.735 28.444 28.444s-12.735 28.444-28.444 28.444zM627.2 522.098h-255.289c-15.709 0-28.444-12.735-28.444-28.444s12.735-28.444 28.444-28.444h255.289c15.709 0 28.444 12.735 28.444 28.444s-12.735 28.444-28.444 28.444zM798.151 659.627l-164.836 151.751c-8.787 8.111-20.576 13.084-33.526 13.084-0.014 0-0.027 0-0.041 0h-360.816c-27.252-0.080-49.332-22.11-49.493-49.336v-607.162c0 0 0 0 0 0 0-27.363 22.142-49.554 49.486-49.635h239.51v-103.111h45.511v103.111h240.64c27.352 0.081 49.493 22.272 49.493 49.635 0 0 0 0 0 0v455.111c0 0.034 0 0.075 0 0.115 0 14.385-6.119 27.341-15.897 36.406zM771.413 167.964c0.001-0.042 0.001-0.092 0.001-0.142 0-3.77-3.056-6.827-6.827-6.827-0.001 0-0.001 0-0.002 0h-240.64v168.107l112.782-112.782 31.716 32.569-167.822 167.822-170.667-170.667 32.142-32.142 115.342 115.342v-168.249h-238.507c0 0-0.001 0-0.001 0-3.77 0-6.827 3.056-6.827 6.827 0 0.050 0.001 0.1 0.002 0.15v607.139c0 3.77 3.056 6.827 6.827 6.827h360.818c0.006 0 0.014 0 0.022 0 1.809 0 3.454-0.704 4.675-1.852l164.69-151.89c1.393-1.272 2.266-3.093 2.276-5.118v-455.113z" />
<glyph unicode="&#xe95f;" glyph-name="m_058_bookmark_thick" d="M674.418 57.6c-13.366 0.141-25.444 5.543-34.283 14.229l-117.753 112.349c-3.144 2.861-7.341 4.612-11.947 4.612s-8.803-1.752-11.961-4.625l-117.746-112.343c-8.937-8.516-21.062-13.755-34.411-13.755-7.149 0-13.947 1.503-20.096 4.21-17.132 7.431-29.12 24.504-29.12 44.377 0 0.005 0 0.009 0 0.014v647.964c0.716 41.079 34.185 74.104 75.367 74.104 0.354 0 0.707-0.002 1.060-0.007l273.867 0.001c0.299 0.004 0.653 0.007 1.006 0.007 41.182 0 74.651-33.026 75.366-74.037l0.001-648.032c-0.101-19.808-12.13-36.781-29.268-44.112-6.092-2.929-12.852-4.684-19.991-4.952zM510.436 245.049c0.122 0.001 0.267 0.001 0.412 0.001 19.684 0 37.571-7.69 50.822-20.229l-0.034 0.032 105.244-100.409v630.187c-0.675 9.658-8.676 17.238-18.447 17.238-0.365 0-0.728-0.011-1.088-0.031l-273.87 0.002c-0.31 0.019-0.673 0.029-1.038 0.029-9.771 0-17.772-7.58-18.443-17.18l-0.003-630.245 105.244 100.409c13.237 12.508 31.143 20.196 50.844 20.196 0.125 0 0.25 0 0.375-0.001z" />
<glyph unicode="&#xe960;" glyph-name="m_058_bookmark_thin" d="M667.022 65.28c-0.038 0-0.083 0-0.128 0-11.361 0-21.685 4.441-29.331 11.681l-117.74 112.337c-4.431 4.046-10.353 6.524-16.853 6.524s-12.423-2.478-16.873-6.541l-117.741-112.338c-7.639-7.28-18.004-11.76-29.415-11.76-6.128 0-11.955 1.292-17.223 3.619-14.628 6.152-24.902 20.626-24.902 37.499 0 0.129 0.001 0.258 0.002 0.387v648.514c0.715 37.151 31 66.994 68.255 66.994 0.354 0 0.708-0.003 1.061-0.008l273.867 0.001c0.3 0.005 0.653 0.007 1.007 0.007 37.255 0 67.54-29.843 68.254-66.927l0.001-648.6c0-0.025 0-0.054 0-0.083 0-16.873-10.273-31.346-24.906-37.506-5.284-2.394-11.145-3.751-17.318-3.798zM503.040 238.364c0.199 0.002 0.435 0.003 0.671 0.003 17.621 0 33.649-6.818 45.59-17.96l-0.039 0.036 117.333-111.929v646.684c-0.69 13.586-11.873 24.341-25.569 24.341-0.361 0-0.72-0.007-1.078-0.022l-273.869 0.002c-0.306 0.013-0.666 0.021-1.027 0.021-13.695 0-24.879-10.755-25.567-24.279l-0.002-646.604 117.333 111.787c11.922 11.106 27.968 17.923 45.607 17.923 0.217 0 0.433-0.001 0.649-0.003z" />
<glyph unicode="&#xe961;" glyph-name="m_059_folder_new_thick" d="M382.578 471.467h255.147v-56.889h-255.147v56.889zM481.707 570.596h56.889v-255.147h-56.889v255.147zM874.24 128.142h-723.2c-30.214 0.241-54.615 24.79-54.615 55.038 0 0.151 0.001 0.301 0.002 0.451v565.879c-0.001 0.127-0.002 0.278-0.002 0.428 0 30.248 24.401 54.798 54.592 55.038h216.77c0.14 0.001 0.307 0.002 0.473 0.002 18.12 0 34.174-8.848 44.077-22.459l32.677-45.241h429.227c30.214-0.241 54.615-24.79 54.615-55.038 0-0.151-0.001-0.301-0.002-0.451v-497.755c0.004-0.254 0.007-0.554 0.007-0.855 0-30.25-24.403-54.8-54.597-55.038zM153.316 185.031h718.649v495.218h-429.084c-0.11-0.001-0.241-0.001-0.371-0.001-18.182 0-34.282 8.908-44.177 22.597l-31.968 45.244h-213.333z" />
<glyph unicode="&#xe962;" glyph-name="m_059_folder_new_thin" d="M385.28 471.609h255.147v-56.889h-255.147v56.889zM484.409 570.738h56.889v-255.147h-56.889v255.147zM876.942 135.111h-723.2c-26.225 0.32-47.362 21.654-47.362 47.926 0 0.151 0.001 0.302 0.002 0.453v566.164c-0.001 0.128-0.002 0.279-0.002 0.43 0 26.271 21.136 47.605 47.332 47.925h216.777c15.712-0.081 29.604-7.8 38.162-19.63l33.375-45.934c0.776-1.171 2.071-1.945 3.549-1.991h431.367c26.289-0.238 47.508-21.605 47.508-47.927 0-0.251-0.002-0.501-0.006-0.751v-497.74c0.007-0.297 0.010-0.647 0.010-0.997 0-26.324-21.222-47.691-47.49-47.927zM153.742 755.342c-2.668-0.359-4.703-2.621-4.703-5.359 0-0.116 0.004-0.231 0.011-0.346l-0.001-565.887c-0.006-0.099-0.010-0.214-0.010-0.33 0-2.738 2.036-5 4.676-5.356l723.228-0.003c2.734 0.293 4.845 2.588 4.845 5.375 0 0.11-0.003 0.22-0.010 0.328l0.001 497.763c0.006 0.094 0.009 0.203 0.009 0.314 0 2.788-2.111 5.082-4.821 5.373l-431.384 0.002c-15.718 0.056-29.619 7.782-38.162 19.629l-33.376 46.219c-0.791 1.155-2.077 1.921-3.545 1.991h-216.757z" />
<glyph unicode="&#xe963;" glyph-name="m_060_folder_thick" d="M876.8 128.142h-723.2c-29.967 0.558-54.046 24.983-54.046 55.031 0 0.153 0.001 0.306 0.002 0.459v565.879c-0.001 0.128-0.002 0.279-0.002 0.43 0 30.198 24.32 54.716 54.442 55.037h215.781c18.030-0.081 33.981-8.909 43.838-22.457l32.677-45.241h430.507c30.214-0.241 54.615-24.79 54.615-55.038 0-0.151-0.001-0.301-0.002-0.451v-497.755c0.004-0.254 0.007-0.554 0.007-0.855 0-30.25-24.403-54.8-54.597-55.038zM156.444 185.031h718.080v495.218h-429.084c-18.030 0.081-33.981 8.909-43.838 22.457l-32.677 45.383h-212.48z" />
<glyph unicode="&#xe964;" glyph-name="m_060_folder_thin" d="M879.502 135.111h-723.058c-26.287 0.24-47.504 21.606-47.504 47.927 0 0.151 0.001 0.301 0.002 0.452v566.164c-0.001 0.127-0.002 0.278-0.002 0.429 0 26.321 21.217 47.687 47.481 47.927h216.627c15.712-0.081 29.604-7.8 38.162-19.63l33.375-45.934c0.791-1.155 2.077-1.921 3.545-1.991h431.37c26.287-0.24 47.504-21.606 47.504-47.927 0-0.151-0.001-0.301-0.002-0.452v-497.755c0.011-0.382 0.017-0.831 0.017-1.282 0-26.326-21.226-47.695-47.497-47.927zM156.444 755.342c-2.734-0.293-4.845-2.588-4.845-5.375 0-0.11 0.003-0.22 0.010-0.328l-0.001-565.887c-0.021-0.179-0.033-0.386-0.033-0.596 0-2.796 2.123-5.096 4.845-5.376l723.081-0.002c2.734 0.293 4.845 2.588 4.845 5.375 0 0.11-0.003 0.22-0.010 0.328l0.001 497.763c0.006 0.094 0.009 0.203 0.009 0.314 0 2.788-2.111 5.082-4.821 5.373l-431.384 0.002c-15.718 0.056-29.619 7.782-38.162 19.629l-33.376 46.219c-0.791 1.155-2.077 1.921-3.545 1.991h-216.615z" />
<glyph unicode="&#xe965;" glyph-name="m_061_image_thick" d="M765.724 263.111l-131.84 163.129c-3.942 4.937-9.96 8.072-16.711 8.072s-12.769-3.136-16.678-8.030l-17.384-22.656c-4.652-5.81-11.744-9.499-19.698-9.499s-15.046 3.689-19.659 9.449l-65.887 80.548c-5.414 6.794-13.687 11.11-22.969 11.11s-17.555-4.316-22.923-11.051l-170.712-213.393c-2.895-3.541-4.649-8.112-4.649-13.094 0-11.252 8.95-20.414 20.119-20.755l476.618-0.001c8.604 0.791 15.289 7.973 15.289 16.716 0 3.531-1.090 6.807-2.953 9.51zM769.138 594.347c0.22-1.849 0.346-3.991 0.346-6.162 0-30.398-24.642-55.040-55.040-55.040s-55.040 24.642-55.040 55.040c0 28.121 21.089 51.316 48.314 54.633 2.091 0.24 4.207 0.361 6.352 0.361 28.295 0 51.642-21.187 55.041-48.562zM867.556 74.951h-702.436c-31.419 0-56.889 25.47-56.889 56.889v631.751c0 31.419 25.47 56.889 56.889 56.889h702.436c31.419 0 56.889-25.47 56.889-56.889v-632.036c-0.162-31.296-25.569-56.604-56.888-56.604 0 0 0 0-0.001 0zM165.262 131.84h702.293v631.751h-702.293z" />
<glyph unicode="&#xe966;" glyph-name="m_061_image_thin" d="M758.329 263.964l-131.84 162.844c-3.942 4.937-9.96 8.072-16.711 8.072s-12.769-3.136-16.678-8.030l-18.095-22.656c-4.652-5.81-11.744-9.499-19.698-9.499s-15.046 3.689-19.659 9.449l-65.319 80.69c-5.414 6.794-13.687 11.11-22.969 11.11s-17.555-4.316-22.923-11.051l-170.712-213.393c-2.895-3.541-4.649-8.112-4.649-13.094 0-11.252 8.95-20.414 20.119-20.755l476.618-0.001c8.708 0.679 15.516 7.911 15.516 16.734 0 3.583-1.123 6.904-3.036 9.63zM761.742 594.773c0.22-1.849 0.346-3.991 0.346-6.162 0-30.398-24.642-55.040-55.040-55.040s-55.040 24.642-55.040 55.040c0 28.121 21.089 51.316 48.314 54.633 2.091 0.24 4.207 0.361 6.352 0.361 28.295 0 51.642-21.187 55.041-48.562zM860.302 82.489h-702.578c-27.352 0.081-49.493 22.272-49.493 49.635 0 0 0 0 0 0v631.893c0.081 27.302 22.191 49.413 49.486 49.493h702.586c0.085 0.001 0.185 0.001 0.285 0.001 27.363 0 49.555-22.142 49.635-49.486v-631.901c0 0 0-0.001 0-0.001 0-27.413-22.223-49.636-49.636-49.636-0.1 0-0.2 0-0.3 0.001zM157.724 770.987c-3.77 0-6.827-3.056-6.827-6.827v-632.036c-0.001-0.042-0.001-0.092-0.001-0.142 0-3.77 3.056-6.827 6.827-6.827 0.001 0 0.001 0 0.002 0h702.578c0.128-0.009 0.278-0.013 0.428-0.013 3.77 0 6.827 3.056 6.827 6.827 0 0.055-0.001 0.109-0.002 0.164v631.885c0 3.77-3.056 6.827-6.827 6.827h-703.004z" />
<glyph unicode="&#xe967;" glyph-name="m_062_logging_thin" d="M367.076 579.556h192.284v-42.667h-192.284v42.667zM367.076 443.307h336.782v-42.667h-336.782v42.667zM367.076 306.062h398.649v-42.667h-398.649v42.667zM823.609 843.804h-621.653c-27.492 0-49.778-22.286-49.778-49.778v-719.36c0-11.782 9.551-21.333 21.333-21.333s21.333 9.551 21.333 21.333v719.36c0 3.927 3.184 7.111 7.111 7.111h621.653c3.927 0 7.111-3.184 7.111-7.111v-78.080h-465.351v-42.667h465.351v-598.613c0-11.782 9.551-21.333 21.333-21.333s21.333 9.551 21.333 21.333v719.36c0 27.492-22.286 49.778-49.778 49.778zM367.076 170.524h297.813v-42.667h-297.813v42.667zM258.844 654.080c-3.884 0.056-7.011 3.218-7.011 7.11 0 1.939 0.776 3.697 2.035 4.98l31.714 31.714-31.716 31.716c-1.292 1.292-2.091 3.077-2.091 5.049 0 3.943 3.197 7.14 7.14 7.14 1.972 0 3.757-0.799 5.049-2.091l36.836-36.836c1.299-1.289 2.103-3.075 2.103-5.049s-0.804-3.76-2.103-5.048l-36.836-36.836c-1.259-1.151-2.943-1.856-4.791-1.856-0.116 0-0.231 0.003-0.345 0.008zM258.844 516.551c-3.884 0.056-7.011 3.218-7.011 7.11 0 1.939 0.776 3.697 2.035 4.98l31.714 31.714-31.716 31.716c-1.292 1.292-2.091 3.077-2.091 5.049 0 3.943 3.197 7.14 7.14 7.14 1.972 0 3.757-0.799 5.049-2.091l36.836-36.836c1.299-1.289 2.103-3.075 2.103-5.049s-0.804-3.76-2.103-5.048l-36.978-36.125c-1.209-1.454-2.969-2.414-4.955-2.559zM258.844 378.88c-0.056-0.002-0.122-0.002-0.188-0.002-3.927 0-7.111 3.184-7.111 7.111 0 2.011 0.835 3.827 2.177 5.12l31.718 31.718-31.716 31.716c-1.292 1.292-2.091 3.077-2.091 5.049 0 3.943 3.197 7.14 7.14 7.14 1.972 0 3.757-0.799 5.049-2.091l36.836-36.836c1.299-1.289 2.103-3.075 2.103-5.049s-0.804-3.76-2.103-5.048l-36.836-36.836c-1.277-1.232-3.017-1.991-4.935-1.991-0.015 0-0.030 0-0.045 0zM258.844 241.351c-3.884 0.056-7.011 3.218-7.011 7.11 0 1.939 0.776 3.697 2.035 4.98l31.714 31.714-31.716 31.716c-1.292 1.292-2.091 3.077-2.091 5.049 0 3.943 3.197 7.14 7.14 7.14 1.972 0 3.757-0.799 5.049-2.091l36.836-36.836c1.299-1.289 2.103-3.075 2.103-5.049s-0.804-3.76-2.103-5.048l-36.836-36.836c-1.259-1.151-2.943-1.856-4.791-1.856-0.116 0-0.231 0.003-0.345 0.008zM258.844 103.68c-3.884 0.056-7.011 3.218-7.011 7.11 0 1.939 0.776 3.697 2.035 4.98l31.714 31.714-31.716 31.716c-1.292 1.292-2.091 3.077-2.091 5.049 0 3.943 3.197 7.14 7.14 7.14 1.972 0 3.757-0.799 5.049-2.091l36.836-36.836c1.299-1.289 2.103-3.075 2.103-5.049s-0.804-3.76-2.103-5.048l-36.836-36.836c-1.259-1.151-2.943-1.856-4.791-1.856-0.116 0-0.231 0.003-0.345 0.008z" />
<glyph unicode="&#xe968;" glyph-name="m_063_storage_thin" d="M816.64 64h-612.836c-27.492 0-49.778 22.286-49.778 49.778v452.124c0 11.782 9.551 21.333 21.333 21.333s21.333-9.551 21.333-21.333v-452.124c0-3.927 3.184-7.111 7.111-7.111h612.978c3.927 0 7.111 3.184 7.111 7.111v496.924c0 27.492 22.286 49.778 49.778 49.778h3.271c3.609 0.373 6.4 3.399 6.4 7.075 0 0.013 0 0.025 0 0.038v119.18c0 3.927-3.184 7.111-7.111 7.111h-738.987c-3.927 0-7.111-3.184-7.111-7.111v-119.324c0-3.927 3.184-7.111 7.111-7.111h590.507c11.782 0 21.333-9.551 21.333-21.333s-9.551-21.333-21.333-21.333h-590.507c-27.492 0-49.778 22.286-49.778 49.778v119.324c0 27.492 22.286 49.778 49.778 49.778h738.844c27.492 0 49.778-22.286 49.778-49.778v-119.324c0-27.492-22.286-49.778-49.778-49.778h-3.271c-3.609-0.373-6.4-3.399-6.4-7.075 0-0.013 0-0.025 0-0.038v-496.78c0-27.492-22.286-49.778-49.778-49.778zM652.231 382.293h-285.582c-7.855 0-14.222 6.368-14.222 14.222v96.853c0 7.855 6.368 14.222 14.222 14.222h285.582c7.855 0 14.222-6.368 14.222-14.222v-96.853c0-7.855-6.368-14.222-14.222-14.222zM380.871 410.738h257.138v68.409h-257.138v-68.409z" />
<glyph unicode="&#xe969;" glyph-name="m_064_certificate_thin" d="M862.72 102.4l-80.498 180.907c18.178 23.985 29.119 54.329 29.119 87.228 0 46.103-21.485 87.187-54.989 113.787l-0.299 317.385c0 27.492-22.286 49.778-49.778 49.778h-457.529c-27.492 0-49.778-22.286-49.778-49.778v-708.124c0-27.492 22.286-49.778 49.778-49.778h128c11.782 0 21.333 9.551 21.333 21.333s-9.551 21.333-21.333 21.333h-128c-3.927 0-7.111 3.184-7.111 7.111v708.124c0 3.927 3.184 7.111 7.111 7.111h457.387c3.927 0 7.111-3.184 7.111-7.111v-293.689c-14.33 5.174-30.868 8.166-48.105 8.166-80.511 0-145.778-65.267-145.778-145.778 0-31.035 9.698-59.806 26.23-83.446l-83.228-184.418c-0.774-1.699-1.226-3.685-1.226-5.776 0-7.855 6.368-14.222 14.222-14.222 2.539 0 4.922 0.665 6.986 1.831l62.791 34.665 15.076-69.262c1.336-5.937 6.248-10.417 12.309-11.088l1.486-0.006c5.731 0.012 10.664 3.412 12.906 8.302l75.841 168.338 75.093-168.533c2.278-4.979 7.212-8.379 12.941-8.391h1.424c6.259 0.653 11.272 5.28 12.5 11.286l15.945 70.065 62.009-35.129c1.98-1.112 4.346-1.766 6.864-1.766 7.855 0 14.222 6.368 14.222 14.222 0 1.918-0.38 3.747-1.068 5.416zM665.316 487.964c0.225 0.002 0.49 0.002 0.756 0.002 64.801 0 117.333-52.532 117.333-117.333 0-29.971-11.237-57.318-29.729-78.056-1.889-2.159-4.023-4.435-6.156-6.568l-2.56-2.418c-2.133-1.991-4.267-3.84-6.542-5.689l-2.56-1.991c-2.418-1.849-4.978-3.556-7.538-5.12l-2.276-1.422c-2.844-1.707-5.831-3.271-8.818-4.836l-1.564-0.711c-3.271-1.564-6.684-2.987-10.24-4.267h-0.853c-2.894-1.092-6.692-2.262-10.566-3.24l-0.811-0.173c-7.373-1.823-15.884-2.954-24.629-3.127l-9.789-0.002c-30.519 1.751-57.663 14.914-77.487 35.247l-0.024 0.025c-20.866 21.17-33.751 50.254-33.751 82.348 0 64.801 52.532 117.333 117.333 117.333 0.166 0 0.331 0 0.497-0.001zM578.844 97.849l-9.956 46.222c-1.454 6.43-7.119 11.159-13.888 11.159-2.523 0-4.893-0.657-6.948-1.81l-42.595-23.288 60.302 132.978h1.422c4.262-3.832 8.899-7.521 13.752-10.923l0.47-0.312c4.859-3.437 10.443-6.836 16.256-9.857l0.811-0.383c5.062-2.651 11.168-5.293 17.474-7.511l1.015-0.311c5.319-1.976 11.848-3.841 18.547-5.241zM777.956 153.458c-2.021 1.169-4.445 1.859-7.031 1.859-6.749 0-12.4-4.701-13.857-11.008l-10.828-47.171-56.889 129.138c13.865 2.341 26.283 6.3 37.86 11.751l1.109 0.622c6.171 2.956 11.296 5.845 16.218 9.022l0.564-0.347c5.323 3.715 9.96 7.404 14.358 11.355l0.86 0.734 58.027-130.133zM348.16 723.484h258.133v-42.667h-258.133v42.667zM349.867 616.533h256.284v-42.667h-256.284v42.667z" />
<glyph unicode="&#xe96a;" glyph-name="m_065_brand_thin" d="M513.991 846.222c-222.446 0-402.773-180.328-402.773-402.773s180.328-402.773 402.773-402.773c222.246 0 402.449 180.004 402.773 402.174 0 0.073 0 0.123 0 0.173 0 222.531-180.276 402.957-402.75 403.2zM641.991 317.013c14.018-23.669 22.302-52.169 22.302-82.603 0-31.798-9.043-61.483-24.696-86.626-13.108-22.356-30.522-41.63-51.13-56.823l-4.075-1.077v289.138c23.826-16.363 43.274-37.355 57.399-61.809zM585.102 382.578v291.413q79.218-56.889 79.218-143.929c0.002-0.316 0.003-0.688 0.003-1.062 0-33.414-9.699-64.563-26.436-90.784-13.050-22.4-30.972-41.459-52.317-55.821zM769.991 189.867c2.273 12.27 3.615 26.429 3.697 40.887-0.575 55.772-16.756 107.577-44.369 151.464 28.077 39.998 44.378 90.61 44.378 145.030 0 0.79-0.003 1.579-0.010 2.367 0.004 0.331 0.006 0.865 0.006 1.399 0 55.23-18.156 106.22-48.825 147.327l-248.425-0.651v-592.924c-182.468 19.476-323.347 172.591-323.347 358.61 0 199.117 161.416 360.533 360.533 360.533s360.533-161.416 360.533-360.533c0-99.132-40.009-188.92-104.761-254.096z" />
<glyph unicode="&#xe96b;" glyph-name="m_066_theme_thin" d="M393.529 426.24h-265.529c-0.044 0-0.095-0.001-0.146-0.001-11.782 0-21.333 9.551-21.333 21.333 0 0.15 0.002 0.3 0.005 0.449v386.964c0 0 0 0 0 0 0 11.782 9.551 21.333 21.333 21.333 0.050 0 0.1 0 0.15-0.001h265.521c11.782 0 21.333-9.551 21.333-21.333v-386.987c0.003-0.127 0.004-0.277 0.004-0.427 0-11.782-9.551-21.333-21.333-21.333-0.002 0-0.003 0-0.005 0zM149.049 468.907h223.147v344.747h-223.004v-344.747zM896 40.533h-768c-11.782 0-21.333 9.551-21.333 21.333v282.596c0 11.782 9.551 21.333 21.333 21.333h768c11.782 0 21.333-9.551 21.333-21.333v-282.596c0-11.782-9.551-21.333-21.333-21.333zM148.48 83.2h726.898v239.929h-726.187v-239.929zM896 426.24h-394.24c-11.782 0-21.333 9.551-21.333 21.333v387.413c0 11.782 9.551 21.333 21.333 21.333h394.24c11.782 0 21.333-9.551 21.333-21.333v-386.987c0.003-0.127 0.004-0.277 0.004-0.427 0-11.782-9.551-21.333-21.333-21.333-0.002 0-0.003 0-0.005 0zM522.382 468.907h352.996v344.747h-352.284v-344.747z" />
<glyph unicode="&#xe96c;" glyph-name="m_067_audit_thin" d="M471.324 176.213c-5.889 0.005-11.218 2.396-15.075 6.258l-82.631 82.631c-3.548 3.799-5.726 8.917-5.726 14.543 0 11.782 9.551 21.333 21.333 21.333 5.626 0 10.744-2.178 14.556-5.737l67.543-67.544 158.009 158.009c3.799 3.548 8.917 5.726 14.543 5.726 11.782 0 21.333-9.551 21.333-21.333 0-5.626-2.178-10.744-5.737-14.556l-173.073-173.072c-3.857-3.862-9.187-6.252-15.075-6.258zM900.551 557.653h-768c-0.004 0-0.008 0-0.012 0-11.782 0-21.333 9.551-21.333 21.333 0 7.389 3.757 13.901 9.464 17.729l384.646 257.329c3.334 2.262 7.447 3.611 11.876 3.611s8.541-1.349 11.951-3.659l383.925-257.232c5.795-3.876 9.56-10.393 9.56-17.791 0-11.782-9.551-21.333-21.333-21.333-0.261 0-0.521 0.005-0.78 0.014zM202.382 600.32h628.053l-312.889 210.204zM322.56 44.8h-190.436c-11.782 0-21.333 9.551-21.333 21.333s9.551 21.333 21.333 21.333h26.311v371.484h-26.311c-11.782 0-21.333 9.551-21.333 21.333s9.551 21.333 21.333 21.333h190.578c11.782 0 21.333-9.551 21.333-21.333s-9.551-21.333-21.333-21.333h-26.453v-371.484h26.311c11.782 0 21.333-9.551 21.333-21.333s-9.551-21.333-21.333-21.333zM200.96 87.467h52.622v371.484h-52.622v-371.484zM900.693 44.8h-190.436c-11.782 0-21.333 9.551-21.333 21.333s9.551 21.333 21.333 21.333h26.311v371.484h-26.311c-11.782 0-21.333 9.551-21.333 21.333s9.551 21.333 21.333 21.333h190.578c11.782 0 21.333-9.551 21.333-21.333s-9.551-21.333-21.333-21.333h-26.453v-371.484h26.311c11.782 0 21.333-9.551 21.333-21.333s-9.551-21.333-21.333-21.333zM779.093 87.467h52.622v371.484h-52.622v-371.484z" />
<glyph unicode="&#xe96d;" glyph-name="m_068_audit2_thin" d="M464.64 459.093c-5.889 0.005-11.218 2.396-15.075 6.258l-83.2 83.2c-3.548 3.799-5.726 8.917-5.726 14.543 0 11.782 9.551 21.333 21.333 21.333 5.626 0 10.744-2.178 14.556-5.737l68.112-68.113 159.289 159.431c3.871 3.889 9.228 6.295 15.147 6.295 11.803 0 21.37-9.568 21.37-21.37 0-5.884-2.378-11.212-6.225-15.076l-174.506-174.506c-3.857-3.862-9.187-6.252-15.075-6.258zM464.64 200.96c-5.889 0.005-11.218 2.396-15.075 6.258l-83.2 83.2c-2.592 3.491-4.15 7.885-4.15 12.642 0 11.782 9.551 21.333 21.333 21.333 4.901 0 9.415-1.652 13.017-4.43l68.075-68.088 159.289 160c3.871 3.889 9.228 6.295 15.147 6.295 11.803 0 21.37-9.568 21.37-21.37 0-5.884-2.378-11.212-6.225-15.076l-174.506-174.506c-3.857-3.862-9.187-6.252-15.075-6.258zM762.453 41.387h-504.32c-32.666 0.322-59.022 26.877-59.022 59.588 0 0.001 0 0.002 0 0.003v653.369c0 0 0 0 0 0 0 32.861 26.599 59.51 59.441 59.591h78.514v-42.667h-78.933c-9.099-0.316-16.356-7.768-16.356-16.915 0-0.003 0-0.007 0-0.010v-653.368c0 0 0 0 0-0.001 0-9.297 7.496-16.843 16.775-16.924h503.901c9.286 0.081 16.782 7.627 16.782 16.924 0 0 0 0 0 0.001v653.369c0 0 0 0 0 0.001 0 9.297-7.496 16.843-16.775 16.924h-77.945v42.667h77.938c32.85-0.081 59.449-26.73 59.449-59.591 0 0 0 0 0 0v-653.369c0 0 0 0 0 0 0-32.861-26.599-59.51-59.441-59.591zM609.28 822.187h-48.498c-5.762 22.097-25.541 38.142-49.067 38.142s-43.304-16.045-48.988-37.79l-48.576-0.352c-7.855 0-14.222-6.368-14.222-14.222v-31.858c0-7.855 6.368-14.222 14.222-14.222h195.129c7.855 0 14.222 6.368 14.222 14.222v32.142c-0.16 7.731-6.465 13.938-14.219 13.938-0.001 0-0.002 0-0.003 0z" />
<glyph unicode="&#xe96e;" glyph-name="m_069_delete_thick" d="M169.671 759.182h684.658v-56.889h-684.658v56.889zM356.693 622.933h56.889v-458.524h-56.889v458.524zM483.556 622.933h56.889v-458.524h-56.889v458.524zM613.689 622.933h56.889v-458.524h-56.889v458.524zM768.996 34.418h-514.418c-15.709 0-28.444 12.735-28.444 28.444v668.444h56.889v-640h457.529v640h56.889v-668.444c0-15.709-12.735-28.444-28.444-28.444zM669.44 730.738h-56.889v73.956h-199.111v-73.956h-56.889v102.4c0 15.709 12.735 28.444 28.444 28.444h256c15.709 0 28.444-12.735 28.444-28.444z" />
<glyph unicode="&#xe96f;" glyph-name="m_069_delete_thin" d="M160.427 759.893h703.858v-54.756h-703.858v54.756zM362.951 623.502h42.667v-458.524h-42.667v458.524zM489.956 623.502h42.667v-458.524h-42.667v458.524zM620.089 623.502h42.667v-458.524h-42.667v458.524zM800.142 35.556h-572.587c-0.024 0-0.052 0-0.080 0-15.709 0-28.444 12.735-28.444 28.444 0 0.751 0.029 1.495 0.086 2.231l-0.006 668.347h52.622v-644.693h522.098v643.698h54.756v-668.444c0.015-0.339 0.023-0.738 0.023-1.138 0-15.709-12.735-28.444-28.444-28.444-0.008 0-0.016 0-0.024 0zM661.476 731.449h-42.667v81.067h-213.333v-81.067h-42.667v102.258c0 0 0 0 0 0 0 11.732 9.47 21.252 21.183 21.333h256.008c11.782 0 21.333-9.551 21.333-21.333v-102.4z" />
<glyph unicode="&#xe970;" glyph-name="m_070_signout_thick" d="M469.333 100.693h-341.333c-14.764 1.144-26.311 13.406-26.311 28.364 0 0.028 0 0.056 0 0.084v637.436c0 15.709 12.735 28.444 28.444 28.444h341.333c15.644 0 19.911-12.8 19.911-28.444s-4.267-26.311-19.911-26.311h-315.022v-584.818h314.311c15.644 0 17.778-10.667 17.778-26.311s-2.133-28.444-19.2-28.444zM555.947 34.56c-15.709 0-28.444 12.735-28.444 28.444v200.107h-243.058c-15.709 0-28.444 12.735-28.444 28.444v312.889c0 15.709 12.735 28.444 28.444 28.444h243.342v197.689c0.068 15.658 12.777 28.325 28.444 28.325 7.825 0 14.912-3.16 20.055-8.273l385.848-381.581c5.154-5.149 8.342-12.264 8.342-20.124s-3.188-14.976-8.342-20.124l-386.134-385.991c-5.139-5.098-12.217-8.249-20.031-8.249-0.008 0-0.016 0-0.024 0zM312.889 320h241.778c15.709 0 28.444-12.735 28.444-28.444v-160l318.578 317.44-318.578 312.889v-157.44c0.035-0.511 0.055-1.108 0.055-1.709 0-14.636-11.76-26.526-26.346-26.735h-243.931v-256z" />
<glyph unicode="&#xe971;" glyph-name="m_070_signout_thin" d="M452.267 145.493h-326.4c-11.782 0-21.333 9.551-21.333 21.333v571.449c0 11.782 9.551 21.333 21.333 21.333h326.4c11.782 0 21.333-9.551 21.333-21.333s-9.551-21.333-21.333-21.333h-305.067v-528.782h305.067c11.782 0 21.333-9.551 21.333-21.333s-9.551-21.333-21.333-21.333zM550.827 88.462c-11.782 0-21.333 9.551-21.333 21.333v191.431h-246.044c-11.782 0-21.333 9.551-21.333 21.333v257.422c0 11.782 9.551 21.333 21.333 21.333h246.044v199.111c0.011 11.774 9.558 21.315 21.333 21.315 5.886 0 11.216-2.384 15.076-6.239l344.32-345.6c3.855-3.86 6.239-9.189 6.239-15.076s-2.384-11.216-6.239-15.076l-344.32-345.031c-3.857-3.862-9.187-6.252-15.075-6.258zM304.782 344.462h246.044c11.782 0 21.333-9.551 21.333-21.333v-161.849l293.404 293.547-293.404 293.547v-168.391c0-11.782-9.551-21.333-21.333-21.333h-246.044z" />
<glyph unicode="&#xe972;" glyph-name="m_071_claim_thick" d="M511.289 40.391c-0.148 0-0.324 0-0.5 0-225.587 0-408.462 182.875-408.462 408.462s182.875 408.462 408.462 408.462c79.126 0 152.997-22.499 215.564-61.448 6.682-4.040 12.225-13.109 12.225-23.474 0-15.709-12.735-28.444-28.444-28.444-5.653 0-10.921 1.649-15.349 4.493-51.989 32.248-115.192 51.401-182.87 51.401-193.854 0-351.004-157.15-351.004-351.004s157.15-351.004 351.004-351.004c193.854 0 351.004 157.15 351.004 351.004 0 58.53-14.326 113.714-39.663 162.238l-312.963-332.747-184.889 184.889c-5.15 5.15-8.336 12.265-8.336 20.124 0 15.718 12.742 28.46 28.46 28.46 7.859 0 14.974-3.186 20.124-8.336l143.644-143.644 324.267 342.187 19.769-30.151c41.601-62.921 66.369-140.142 66.369-223.147 0-225.292-182.459-407.968-407.668-408.319z" />
<glyph unicode="&#xe973;" glyph-name="m_071_claim_thin" d="M481.422 81.636c-0.21 0-0.46-0.001-0.709-0.001-221.66 0-401.351 179.691-401.351 401.351s179.691 401.351 401.351 401.351c77.786 0 150.404-22.129 211.901-60.434 4.288-2.859 8.198-9.485 8.198-17.023 0-11.782-9.551-21.333-21.333-21.333-4.078 0-7.888 1.144-11.128 3.129-52.825 32.506-116.932 51.794-185.544 51.794-197.86 0-358.258-160.397-358.258-358.258s160.397-358.258 358.258-358.258c197.86 0 358.258 160.397 358.258 358.258 0 63.539-16.541 123.214-45.551 174.955l-315.087-334.607-179.484 179.484c-4.183 3.905-6.79 9.452-6.79 15.608 0 11.782 9.551 21.333 21.333 21.333 6.156 0 11.702-2.607 15.596-6.778l148.491-148.492 323.129 341.333 14.222-22.613c41.009-61.897 65.429-137.893 65.429-219.591 0-221.484-179.469-401.050-400.916-401.209z" />
<glyph unicode="&#xe974;" glyph-name="m_072_history_thick" d="M512.853 775.111c-19.387-0.016-38.41-1.515-56.979-4.39l77.459 75.501c5.15 5.15 8.336 12.265 8.336 20.124 0 15.718-12.742 28.46-28.46 28.46-7.859 0-14.974-3.186-20.124-8.336l-128-128c-5.154-5.149-8.342-12.264-8.342-20.124s3.188-14.976 8.342-20.124l129.707-129.707c5.15-5.15 12.265-8.336 20.124-8.336 15.718 0 28.46 12.742 28.46 28.46 0 7.859-3.186 14.974-8.336 20.124l-83.2 83.2c17.404 3.475 37.412 5.464 57.884 5.464 170.84 0 309.333-138.493 309.333-309.333s-138.493-309.333-309.333-309.333c-170.819 0-309.299 138.459-309.333 309.271 0.011 69.756 23.257 134.078 62.42 185.652l228.851-229.88c5.15-5.15 12.265-8.336 20.124-8.336 15.718 0 28.46 12.742 28.46 28.46 0 7.859-3.186 14.974-8.336 20.124l-251.307 251.449c-5.154 5.187-12.292 8.397-20.179 8.397-0.206 0-0.411-0.002-0.616-0.007-8.030-0.191-15.233-3.707-20.288-9.223-58.263-64.801-93.884-150.937-93.884-245.393 0-203.044 164.6-367.644 367.644-367.644 202.658 0 367.018 163.974 367.643 366.485-0.405 202.798-164.849 366.993-367.644 366.993-0.15 0-0.3 0-0.451 0z" />
<glyph unicode="&#xe975;" glyph-name="m_072_history_thin" d="M482.418 64c-0.655-0.004-1.43-0.007-2.205-0.007-198.253 0-358.969 160.716-358.969 358.969 0 93.204 35.521 178.111 93.764 241.923 3.541 3.877 8.929 6.525 14.936 6.688 0.218 0.007 0.441 0.010 0.665 0.010 5.826 0 11.091-2.399 14.862-6.263l251.595-251.453c3.548-3.799 5.726-8.917 5.726-14.543 0-11.782-9.551-21.333-21.333-21.333-5.626 0-10.744 2.178-14.556 5.737l-235.081 234.94c-42.54-53.166-68.267-121.396-68.267-195.635 0-0.122 0-0.244 0-0.366-0.006-0.711-0.009-1.574-0.009-2.438 0-176.417 143.014-319.431 319.431-319.431s319.431 143.014 319.431 319.431c0 176.417-143.014 319.431-319.431 319.431-30.576 0-60.148-4.296-88.147-12.317 0.528 0.050-1.455-0.24-3.506-0.24-11.787 0-21.343 9.556-21.343 21.343 0 9.737 6.52 17.951 15.432 20.514 30.269 9.141 64.881 14.382 100.717 14.382 198.646 0 359.68-161.034 359.68-359.68s-161.034-359.68-359.68-359.68c-1.306 0-2.61 0.007-3.912 0.021zM485.262 601.884c-5.889 0.005-11.218 2.396-15.075 6.258l-129.707 129.707c-3.855 3.86-6.239 9.189-6.239 15.076s2.384 11.216 6.239 15.076l128 128c3.462 2.526 7.801 4.042 12.495 4.042 11.782 0 21.333-9.551 21.333-21.333 0-4.979-1.706-9.56-4.565-13.19l-112.748-112.737 114.631-114.631c3.855-3.86 6.239-9.189 6.239-15.076 0-11.775-9.541-21.323-21.314-21.333z" />
<glyph unicode="&#xe976;" glyph-name="m_073_configure_thick" d="M510.578 301.938c-81.208 0.323-146.915 66.23-146.915 147.483 0 81.453 66.031 147.484 147.484 147.484s147.484-66.031 147.484-147.484c0-0.050 0-0.099 0-0.149-0.323-81.436-66.421-147.335-147.91-147.335-0.050 0-0.101 0-0.151 0zM510.578 539.876c-49.789-0.323-90.027-40.759-90.027-90.594 0-50.035 40.561-90.596 90.596-90.596s90.595 40.56 90.596 90.594c-0.242 50.086-40.901 90.596-91.021 90.596-0.050 0-0.101 0-0.151 0zM780.089 400.782c-17.255-3.493-31.026-15.66-36.729-31.657-3.849-10.999-7.546-19.687-11.706-28.105-2.51-4.82-4.359-12.216-4.359-20.044 0-10.125 3.094-19.528 8.387-27.314l46.54-67.386-47.502-47.076-67.982 46.364c-7.702 5.183-17.188 8.273-27.395 8.273-7.776 0-15.133-1.793-21.68-4.989-6.705-3.382-15.442-7.080-24.415-10.279-18.11-6.289-30.322-20.009-33.832-36.918l-15.273-81.811h-66.987l-15.076 81.493c-3.566 17.227-15.778 30.948-31.799 36.588-11.071 3.855-19.808 7.553-28.276 11.713-4.809 2.461-12.214 4.284-20.044 4.284-10.154 0-19.592-3.067-27.438-8.324l-67.52-45.968-47.36 47.218 46.222 67.271c5.185 7.646 8.278 17.077 8.278 27.23 0 7.736-1.795 15.052-4.992 21.556-3.435 6.697-7.177 15.381-10.42 24.306-6.347 17.882-19.916 29.944-36.632 33.518l-88.5 15.133v66.702l88.178 14.933c17.242 3.521 31.001 15.677 36.728 31.657 3.828 10.973 7.526 19.662 11.695 28.075 2.374 4.724 4.134 11.95 4.134 19.588 0 10.332-3.222 19.912-8.715 27.79l-47.255 68.393 47.36 47.218 68.836-47.218c7.702-5.183 17.188-8.273 27.395-8.273 7.776 0 15.133 1.793 21.68 4.989 6.707 3.383 15.444 7.081 24.417 10.28 18.108 6.288 30.32 20.009 33.83 36.917l15.273 86.647h66.987l15.076-86.329c3.566-17.227 15.778-30.948 31.799-36.588 11.040-3.83 19.776-7.528 28.239-11.699 4.845-2.462 12.246-4.277 20.070-4.277 10.155 0 19.595 3.058 27.451 8.304l68.94 47.389 47.36-47.218-47.502-68.693c-5.185-7.646-8.278-17.077-8.278-27.23 0-7.736 1.795-15.052 4.992-21.556 3.436-6.698 7.179-15.383 10.421-24.308 6.355-18.055 20.125-30.222 37.065-33.662l81.809-15.129v-66.702zM868.693 531.484l-76.231 15.218c-4.563 12.887-9.074 23.404-14.15 33.591l43.448 62.694c5.21 7.702 8.318 17.197 8.318 27.419 0 13.688-5.573 26.074-14.573 35.014l-47.505 47.789c-9.030 9.011-21.494 14.583-35.26 14.583-10.283 0-19.84-3.109-27.782-8.439l-64.674-42.553c-8.508 4.249-19.125 8.717-30.031 12.575l-17.329 76.598c-4.735 22.874-24.716 39.822-48.656 39.822-0.044 0-0.089 0-0.133 0h-67.406c-0.003 0-0.007 0-0.010 0-23.967 0-43.979-16.939-48.715-39.498l-15.559-76.698c-13.018-4.511-23.636-8.979-33.924-14.014l-63.071 43.454c-7.762 5.216-17.319 8.325-27.602 8.325-13.766 0-26.23-5.572-35.261-14.584l-47.928-47.644c-8.682-8.887-14.038-21.055-14.038-34.475 0-10.33 3.174-19.92 8.6-27.845l42.557-64.258c-4.314-8.51-8.827-19.076-12.723-29.936l-77.020-17.282c-22.715-4.772-39.546-24.579-39.68-48.341v-67.286c0.093-23.914 17.082-43.832 39.645-48.443l76.551-15.272c4.503-12.947 8.97-23.516 14.007-33.755l-43.447-62.672c-5.21-7.702-8.318-17.197-8.318-27.419 0-13.688 5.573-26.074 14.573-35.014l47.932-47.647c9.030-9.011 21.494-14.583 35.26-14.583 10.283 0 19.84 3.109 27.782 8.439l64.674 42.553c8.549-4.282 19.167-8.75 30.080-12.594l16.853-76.864c4.794-22.883 24.805-39.822 48.772-39.822 0.004 0 0.007 0 0.011 0h67.697c0.003 0 0.007 0 0.010 0 23.967 0 43.979 16.939 48.715 39.498l15.417 76.129c12.714 4.804 23.072 9.494 33.099 14.731l63.186-43.459c7.853-5.392 17.565-8.611 28.028-8.611 13.696 0 26.103 5.515 35.123 14.446l47.925 47.64c9.003 8.943 14.575 21.329 14.575 35.017 0 10.221-3.107 19.717-8.429 27.593l-42.555 64.252c4.324 8.523 8.837 19.089 12.728 29.951l76.872 17.267c22.943 4.607 40 24.545 40.107 48.486v67.425c-0.135 24.032-17.327 44.009-40.078 48.447z" />
</font>
</defs>
</svg>
